<svg xmlns="http://www.w3.org/2000/svg" viewBox="0 0 500 500"><g id="freepik--background-complete--inject-226"><path d="M308.61,237.3l-107.34-1-32.53-.16-8.85,0-2.3,0a4.61,4.61,0,0,0-.78.05,5.74,5.74,0,0,0,.78,0l2.3.06,8.84.11,32.53.17,107.35.06c41.9,0,79.83,0,107.3.25,13.73.1,24.85.22,32.53.37,3.84.07,6.82.15,8.84.22a17.26,17.26,0,0,1,3.08.23,16.76,16.76,0,0,1-3.08.19c-2,.06-5,.11-8.85.14-7.68.07-18.79.08-32.53,0C388.44,238.05,350.5,237.72,308.61,237.3Z" style="fill:#f5f5f5"></path><path d="M307.77,246.49,201.9,229.28l-32.11-5.06-8.74-1.31-2.28-.32a3.55,3.55,0,0,0-.78-.07,5.19,5.19,0,0,0,.76.16l2.27.41,8.71,1.44,32.11,5.09,106,16.26c41.39,6.32,78.86,12.1,106,16.45,13.55,2.16,24.51,4,32.08,5.27,3.78.65,6.71,1.18,8.7,1.56a14.85,14.85,0,0,1,3,.7,16.84,16.84,0,0,1-3.08-.27c-2-.25-5-.66-8.76-1.2-7.6-1.1-18.58-2.76-32.14-4.87C386.51,259.3,349.09,253.24,307.77,246.49Z" style="fill:#f5f5f5"></path><path d="M305.46,255.44,203.7,222.24l-30.89-9.91-8.42-2.64-2.2-.66a4.05,4.05,0,0,0-.76-.19,6.93,6.93,0,0,0,.73.28l2.17.75,8.38,2.76,30.88,9.94,102.07,32.29c39.85,12.57,75.92,24,102,32.45,13,4.21,23.56,7.67,30.82,10.12,3.62,1.22,6.44,2.19,8.33,2.87a15.65,15.65,0,0,1,2.86,1.15,16.2,16.2,0,0,1-3-.74c-1.94-.55-4.79-1.4-8.45-2.52-7.33-2.24-17.91-5.56-31-9.73C381.15,280.14,345.17,268.44,305.46,255.44Z" style="fill:#f5f5f5"></path><path d="M301.74,263.92l-95.12-48.35-28.9-14.51-7.89-3.89-2.06-1-.72-.31a4,4,0,0,0,.67.4l2,1.06,7.83,4,28.89,14.53L302,263.38c37.31,18.51,71.08,35.33,95.44,47.64,12.19,6.16,22,11.19,28.8,14.71,3.39,1.76,6,3.15,7.77,4.11a15,15,0,0,1,2.64,1.57,17.93,17.93,0,0,1-2.84-1.19c-1.83-.84-4.51-2.12-7.94-3.79-6.88-3.33-16.78-8.23-29-14.34C372.48,299.88,338.85,282.82,301.74,263.92Z" style="fill:#f5f5f5"></path><path d="M296.69,271.73l-86.18-62.2L184.3,190.8l-7.16-5-1.88-1.29a3.62,3.62,0,0,0-.66-.41,5.24,5.24,0,0,0,.6.48L177,185.9l7.08,5.15,26.2,18.74,86.76,61.44c33.87,24,64.52,45.7,86.61,61.56,11,7.94,19.95,14.4,26.07,18.9,3.06,2.26,5.43,4,7,5.25a15.65,15.65,0,0,1,2.35,1.94,16.35,16.35,0,0,1-2.61-1.6c-1.67-1.11-4.11-2.78-7.24-4.95C403,348,394,341.65,382.94,333.76,360.78,318,330.3,296,296.69,271.73Z" style="fill:#f5f5f5"></path><path d="M290.45,278.68,215.28,204.2l-22.9-22.46c-2.7-2.62-4.81-4.65-6.27-6.06l-1.65-1.56a4.62,4.62,0,0,0-.58-.51,4.35,4.35,0,0,0,.52.58l1.58,1.62,6.18,6.15L215,204.44l75.87,73.8c29.64,28.79,56.43,54.89,75.71,73.91,9.64,9.5,17.4,17.23,22.73,22.61,2.66,2.69,4.72,4.79,6.09,6.24a14,14,0,0,1,2,2.28,16.53,16.53,0,0,1-2.32-2c-1.47-1.35-3.62-3.37-6.36-6-5.48-5.23-13.35-12.85-23-22.32C346.36,334.07,319.77,307.76,290.45,278.68Z" style="fill:#f5f5f5"></path><path d="M283.18,284.59l-62.34-84.93-19-25.65-5.23-6.93-1.38-1.79a4.75,4.75,0,0,0-.49-.59,3.73,3.73,0,0,0,.42.64l1.3,1.84,5.12,7,19,25.66,63.13,84.38c24.67,32.91,47,62.75,63,84.44,8,10.85,14.44,19.66,18.84,25.78,2.2,3.06,3.89,5.44,5,7.08a15.38,15.38,0,0,1,1.62,2.56,17,17,0,0,1-2-2.31c-1.24-1.56-3-3.87-5.32-6.87-4.58-6-11.14-14.72-19.18-25.53C329.54,347.76,307.48,317.76,283.18,284.59Z" style="fill:#f5f5f5"></path><path d="M275.05,289.34,227.14,196l-14.66-28.23-4-7.64-1.07-2a4.87,4.87,0,0,0-.4-.66,5,5,0,0,0,.31.71l1,2c.91,1.79,2.22,4.38,3.92,7.71,3.47,6.69,8.46,16.33,14.64,28.23l48.78,92.93c19.07,36.26,36.29,69.12,48.6,93,6.16,11.93,11.1,21.6,14.46,28.32,1.68,3.35,3,6,3.82,7.75a14.81,14.81,0,0,1,1.19,2.78,16.33,16.33,0,0,1-1.59-2.58c-1-1.73-2.37-4.29-4.15-7.6-3.56-6.61-8.63-16.22-14.84-28.13C310.68,358.77,293.72,325.79,275.05,289.34Z" style="fill:#f5f5f5"></path><path d="M266.25,292.78c-12.57-38.86-23.95-74-32.2-99.52-4.18-12.7-7.56-23-9.91-30.11L221.38,155l-.74-2.12a6.28,6.28,0,0,0-.28-.71,3.91,3.91,0,0,0,.19.74c.15.51.37,1.22.65,2.14.61,1.91,1.5,4.67,2.63,8.21,2.34,7.14,5.72,17.42,9.89,30.12,8.48,25.42,20.19,60.49,33.13,99.24s24.65,73.8,32.95,99.24c4.15,12.73,7.46,23,9.69,30.18,1.12,3.57,2,6.35,2.51,8.25a15.57,15.57,0,0,1,.73,2.92,15.61,15.61,0,0,1-1.15-2.79c-.68-1.85-1.65-4.6-2.87-8.13-2.44-7.08-5.9-17.35-10.1-30.06C290.19,366.8,278.78,331.64,266.25,292.78Z" style="fill:#f5f5f5"></path><path d="M257,294.84c-6.13-40.3-11.67-76.77-15.69-103.21-2.07-13.18-3.74-23.84-4.91-31.25-.6-3.67-1.07-6.52-1.4-8.49-.17-.95-.3-1.68-.39-2.2a5.69,5.69,0,0,0-.16-.75,3.35,3.35,0,0,0,.07.76c.07.53.17,1.26.3,2.22.29,2,.72,4.83,1.26,8.51,1.16,7.4,2.83,18.07,4.89,31.25,4.27,26.4,10.15,62.82,16.66,103.07S270,371.4,274.09,397.8c2,13.2,3.64,23.89,4.69,31.28.52,3.7.91,6.57,1.15,8.53a14.87,14.87,0,0,1,.24,3,15.46,15.46,0,0,1-.68-2.93c-.37-1.93-.89-4.79-1.52-8.47-1.27-7.36-3-18-5.11-31.22C268.66,371.6,263.09,335.13,257,294.84Z" style="fill:#f5f5f5"></path><path d="M247.53,295.47c.38-40.74.72-77.61,1-104.33.06-13.33.1-24.12.13-31.61,0-3.72,0-6.61,0-8.6,0-1,0-1.7,0-2.24a4.48,4.48,0,0,0-.05-.76,6.42,6.42,0,0,0-.05.76c0,.54,0,1.28,0,2.24,0,2-.06,4.88-.11,8.59,0,7.5-.09,18.29-.15,31.62,0,26.72,0,63.59,0,104.33s0,77.59-.18,104.28c-.09,13.35-.22,24.15-.36,31.62-.07,3.73-.15,6.63-.23,8.59a14.34,14.34,0,0,1-.23,3,16.28,16.28,0,0,1-.2-3c-.06-2-.11-4.86-.15-8.6-.07-7.46-.09-18.27-.06-31.61C246.81,373.05,247.12,336.18,247.53,295.47Z" style="fill:#f5f5f5"></path><path d="M238.07,294.66c6.89-40.19,13.13-76.55,17.64-102.91l5.19-31.21c.58-3.67,1-6.53,1.35-8.5.14-.95.24-1.68.32-2.21a5.4,5.4,0,0,0,.08-.76,3.55,3.55,0,0,0-.17.74l-.42,2.2c-.34,2-.84,4.82-1.48,8.48-1.23,7.4-3,18-5.21,31.21L238.7,294.76c-6.48,40.23-12.4,76.65-16.85,103-2.22,13.17-4.07,23.82-5.41,31.17-.67,3.68-1.21,6.53-1.6,8.46a15.87,15.87,0,0,1-.71,2.93,14.89,14.89,0,0,1,.27-3c.26-1.95.67-4.82,1.23-8.51,1.12-7.39,2.82-18.06,5-31.24C225,371.2,231.15,334.82,238.07,294.66Z" style="fill:#f5f5f5"></path><path d="M228.86,292.42c13.32-38.63,25.37-73.58,34.1-98.92,4.29-12.66,7.77-22.91,10.18-30l2.71-8.18.67-2.14a3.61,3.61,0,0,0,.2-.74,7.35,7.35,0,0,0-.29.71c-.18.5-.44,1.2-.76,2.11-.66,1.89-1.62,4.62-2.84,8.14-2.42,7.12-5.9,17.36-10.21,30-8.49,25.42-20.21,60.48-33.15,99.23s-24.66,73.79-33.33,99.13c-4.33,12.66-7.88,22.9-10.39,29.95-1.26,3.53-2.26,6.26-2.95,8.11a16.89,16.89,0,0,1-1.18,2.78,13.88,13.88,0,0,1,.75-2.92c.57-1.89,1.44-4.66,2.59-8.22,2.3-7.12,5.71-17.4,10-30.09C203.49,366,215.52,331,228.86,292.42Z" style="fill:#f5f5f5"></path><path d="M220.13,288.81c19.41-36.12,37-68.8,49.69-92.48l14.92-28.1c1.72-3.31,3.07-5.89,4-7.67l1-2a4,4,0,0,0,.31-.7,4.64,4.64,0,0,0-.4.65l-1.09,2c-1,1.76-2.34,4.32-4.12,7.61l-14.94,28.08c-12.5,23.8-29.75,56.64-48.82,92.92s-36.3,69.1-49,92.79c-6.33,11.85-11.49,21.41-15.11,28-1.81,3.29-3.24,5.84-4.23,7.55a15.69,15.69,0,0,1-1.61,2.57,15.37,15.37,0,0,1,1.22-2.76c.87-1.78,2.18-4.38,3.9-7.72,3.42-6.69,8.46-16.32,14.73-28.19C183.18,357.59,200.71,324.89,220.13,288.81Z" style="fill:#f5f5f5"></path><path d="M212.1,283.91l64-83.8,19.25-25.48,5.18-7,1.33-1.83a4.75,4.75,0,0,0,.42-.64,5.26,5.26,0,0,0-.5.59l-1.4,1.77c-1.23,1.6-3,3.92-5.29,6.89l-19.27,25.47-63.16,84.36c-24.63,32.94-47,62.74-63.29,84.21-8.15,10.74-14.79,19.41-19.43,25.36-2.32,3-4.13,5.28-5.39,6.82a16.48,16.48,0,0,1-2,2.29,15.47,15.47,0,0,1,1.65-2.54c1.14-1.63,2.86-4,5.08-7,4.46-6.08,11-14.83,19.09-25.6C164.53,346.22,187.11,316.59,212.1,283.91Z" style="fill:#f5f5f5"></path><path d="M205,277.85c29.9-28.55,57-54.39,76.58-73.11l23.09-22.27,6.24-6.09,1.6-1.61a4,4,0,0,0,.52-.57,5,5,0,0,0-.59.51c-.39.36-.95.87-1.66,1.54l-6.33,6L281.29,204.5l-75.9,73.78c-29.6,28.82-56.44,54.88-76,73.63-9.78,9.37-17.72,16.93-23.25,22.11-2.77,2.59-4.93,4.58-6.42,5.92a16.09,16.09,0,0,1-2.34,2,15.7,15.7,0,0,1,2-2.26c1.39-1.44,3.47-3.52,6.15-6.18,5.38-5.34,13.22-13,23-22.41C148,332.22,175,306.36,205,277.85Z" style="fill:#f5f5f5"></path><path d="M198.85,270.78l87.35-60.64,26.38-18.5,7.13-5.08,1.84-1.35a4.79,4.79,0,0,0,.61-.48,6.18,6.18,0,0,0-.66.41l-1.9,1.27-7.21,5L286,209.87l-86.78,61.41c-33.85,24-64.54,45.68-86.85,61.24-11.15,7.79-20.21,14.05-26.51,18.33-3.14,2.14-5.6,3.78-7.28,4.88A16.41,16.41,0,0,1,76,357.31a16.49,16.49,0,0,1,2.37-1.93c1.6-1.2,4-2.95,7.07-5.17,6.16-4.46,15.14-10.84,26.26-18.66C133.89,315.88,164.74,294.42,198.85,270.78Z" style="fill:#f5f5f5"></path><path d="M194,262.88l96-46.62L319,202l7.86-3.93,2-1.05a5.31,5.31,0,0,0,.68-.38,3.44,3.44,0,0,0-.72.3l-2.07,1-7.93,3.81-29,14.25-95.59,47.47C157,282,123.16,298.74,98.62,310.72c-12.27,6-22.23,10.8-29.13,14.07-3.45,1.64-6.14,2.89-8,3.72a18.12,18.12,0,0,1-2.85,1.16,15.52,15.52,0,0,1,2.65-1.55c1.77-.94,4.41-2.3,7.81-4,6.81-3.46,16.69-8.39,28.94-14.44C122.54,297.55,156.47,281.05,194,262.88Z" style="fill:#f5f5f5"></path><path d="M190.42,254.33,292.8,223l31-9.65,8.4-2.69,2.18-.72a4.92,4.92,0,0,0,.73-.28,5.41,5.41,0,0,0-.76.19l-2.21.64L323.68,213l-31,9.63L190.61,254.92c-39.83,12.62-75.92,24-102.1,32.08-13.09,4-23.69,7.27-31,9.44-3.68,1.09-6.54,1.91-8.48,2.45a17.26,17.26,0,0,1-3,.71,16.3,16.3,0,0,1,2.87-1.12c1.9-.67,4.73-1.61,8.37-2.8,7.28-2.38,17.84-5.74,30.91-9.83C114.27,277.65,150.45,266.54,190.42,254.33Z" style="fill:#f5f5f5"></path><path d="M188.29,245.34,294.48,230l32.15-4.8,8.73-1.36,2.27-.38a5,5,0,0,0,.77-.17,6.42,6.42,0,0,0-.78.07l-2.28.3-8.76,1.23-32.15,4.77L188.39,246C147,252.33,109.53,258,82.37,262c-13.58,2-24.58,3.55-32.19,4.58-3.8.51-6.76.89-8.77,1.12a16.87,16.87,0,0,1-3.08.24,16.23,16.23,0,0,1,3-.67c2-.36,4.92-.86,8.71-1.48,7.58-1.23,18.55-2.94,32.12-5C109.32,256.73,146.85,251.29,188.29,245.34Z" style="fill:#f5f5f5"></path><path d="M187.65,236.14,295,237l32.53.11,8.84,0,2.3,0a5,5,0,0,0,.79,0,6,6,0,0,0-.79,0l-2.3,0-8.84-.1L295,236.7l-107.35.06c-41.89.05-79.83.05-107.3-.12-13.73-.08-24.84-.19-32.53-.33-3.84-.06-6.82-.14-8.84-.21a16.84,16.84,0,0,1-3.08-.22,16.05,16.05,0,0,1,3.08-.2c2-.06,5-.11,8.85-.15,7.68-.08,18.79-.1,32.53-.08C107.81,235.49,145.75,235.77,187.65,236.14Z" style="fill:#f5f5f5"></path><path d="M188.47,227,294.37,244l32.11,5,8.74,1.31,2.28.31a4.61,4.61,0,0,0,.78.07,5.85,5.85,0,0,0-.76-.17l-2.27-.39-8.72-1.44-32.11-5-106-16.14c-41.4-6.27-78.88-12-106-16.31C68.83,209.1,57.87,207.3,50.31,206c-3.79-.65-6.72-1.17-8.71-1.55a15.42,15.42,0,0,1-3-.69,16.84,16.84,0,0,1,3.08.27c2,.24,5,.64,8.76,1.19C58,206.31,69,208,82.59,210.05,109.71,214.24,147.14,220.25,188.47,227Z" style="fill:#f5f5f5"></path><path d="M190.76,218l101.81,33.08,30.9,9.87,8.43,2.62,2.19.66a4.52,4.52,0,0,0,.76.19,5.25,5.25,0,0,0-.72-.28L332,263.4l-8.38-2.76-30.9-9.89L190.56,218.58c-39.86-12.52-75.94-23.92-102-32.32-13-4.2-23.57-7.65-30.83-10.08-3.63-1.22-6.45-2.19-8.34-2.87a16.23,16.23,0,0,1-2.86-1.14,16.55,16.55,0,0,1,3,.73c1.94.55,4.79,1.4,8.46,2.51,7.33,2.24,17.91,5.54,31,9.69C115.05,193.39,151,205.05,190.76,218Z" style="fill:#f5f5f5"></path><path d="M194.48,209.51l95.18,48.23,28.92,14.48,7.9,3.88,2.06,1a4.35,4.35,0,0,0,.72.3,6,6,0,0,0-.68-.39l-2-1.06-7.83-4-28.91-14.5-95.63-47.38c-37.34-18.47-71.13-35.25-95.51-47.53-12.19-6.14-22-11.16-28.81-14.67-3.39-1.76-6-3.14-7.78-4.1a15,15,0,0,1-2.64-1.57,17.93,17.93,0,0,1,2.84,1.19c1.83.84,4.51,2.11,7.95,3.78,6.88,3.32,16.79,8.21,29,14.3C123.69,173.64,157.34,190.66,194.48,209.51Z" style="fill:#f5f5f5"></path><path d="M199.52,201.7l86.25,62.1L312,282.49l7.17,5,1.88,1.29a3.62,3.62,0,0,0,.66.41,5.24,5.24,0,0,0-.6-.48l-1.83-1.36-7.09-5.14L286,263.53l-86.84-61.34c-33.91-23.91-64.58-45.61-86.69-61.45-11-7.92-20-14.37-26.1-18.87-3.06-2.25-5.43-4-7-5.23a16.55,16.55,0,0,1-2.36-2,16.53,16.53,0,0,1,2.62,1.6c1.67,1.11,4.11,2.78,7.24,4.94,6.26,4.33,15.27,10.67,26.35,18.54C135.37,155.51,165.87,177.44,199.52,201.7Z" style="fill:#f5f5f5"></path><path d="M205.75,194.74,281,269.13l22.92,22.43,6.28,6.05,1.65,1.56a4.19,4.19,0,0,0,.59.51,5.56,5.56,0,0,0-.52-.58l-1.59-1.61-6.18-6.15-22.91-22.45-76-73.71c-29.67-28.75-56.5-54.82-75.8-73.81-9.66-9.5-17.43-17.21-22.77-22.59-2.66-2.68-4.72-4.79-6.1-6.23a14.69,14.69,0,0,1-2-2.28,16.87,16.87,0,0,1,2.33,2c1.47,1.35,3.62,3.36,6.36,6,5.49,5.22,13.37,12.84,23.06,22.29C149.77,139.42,176.39,165.69,205.75,194.74Z" style="fill:#f5f5f5"></path><path d="M213,188.82l62.45,84.85c8,10.81,14.54,19.55,19.05,25.63,2.27,3,4,5.32,5.24,6.93l1.38,1.78a5.26,5.26,0,0,0,.5.59,7.14,7.14,0,0,0-.42-.64l-1.31-1.84-5.12-7c-4.52-6.07-11-14.82-19-25.63l-63.24-84.3c-24.71-32.89-47-62.7-63.07-84.37C141.41,94,135,85.17,130.56,79.06c-2.2-3.06-3.9-5.45-5-7.08a14.42,14.42,0,0,1-1.62-2.55,15.64,15.64,0,0,1,2,2.3c1.24,1.55,3,3.87,5.33,6.86,4.59,6,11.15,14.71,19.22,25.51C166.57,125.71,188.66,155.68,213,188.82Z" style="fill:#f5f5f5"></path><path d="M221.14,184.06c18.75,36.44,35.72,69.41,48,93.31l14.69,28.2c1.76,3.3,3.12,5.87,4.06,7.64.46.85.82,1.51,1.08,2a3.59,3.59,0,0,0,.4.66s-.1-.24-.31-.7l-1-2c-.92-1.79-2.24-4.38-3.93-7.7l-14.68-28.22c-12.53-23.78-29.81-56.6-48.91-92.87s-36.37-69.07-48.72-92.91c-6.17-11.93-11.13-21.6-14.5-28.31-1.68-3.35-3-6-3.82-7.75a15.59,15.59,0,0,1-1.2-2.77,14.89,14.89,0,0,1,1.59,2.58c1,1.72,2.38,4.28,4.16,7.59C161.65,69.38,166.74,79,173,90.88,185.42,114.67,202.42,147.63,221.14,184.06Z" style="fill:#f5f5f5"></path><path d="M229.93,180.61c12.62,38.85,24,74,32.33,99.48,4.19,12.69,7.59,23,9.95,30.1,1.19,3.53,2.12,6.27,2.77,8.17.32.91.56,1.61.74,2.11a3.19,3.19,0,0,0,.29.71,5.5,5.5,0,0,0-.2-.74c-.15-.51-.37-1.22-.65-2.14-.62-1.9-1.5-4.66-2.64-8.2-2.35-7.14-5.74-17.42-9.93-30.11L229.33,180.8c-13-38.71-24.74-73.78-33.08-99.21-4.17-12.72-7.49-23-9.73-30.17-1.12-3.57-2-6.35-2.52-8.24a13.75,13.75,0,0,1-.73-2.92,16.62,16.62,0,0,1,1.15,2.79c.68,1.85,1.65,4.59,2.88,8.13,2.45,7.07,5.92,17.34,10.14,30C205.89,106.62,217.35,141.77,229.93,180.61Z" style="fill:#f5f5f5"></path><path d="M239.18,178.54c6.17,40.29,11.76,76.76,15.82,103.19,2.08,13.17,3.78,23.84,4.95,31.25.61,3.66,1.08,6.51,1.41,8.48.17,1,.3,1.68.39,2.21a4.61,4.61,0,0,0,.17.74,4.34,4.34,0,0,0-.07-.76c-.07-.53-.17-1.26-.31-2.22-.29-2-.72-4.83-1.27-8.5-1.17-7.41-2.85-18.08-4.93-31.25-4.3-26.4-10.23-62.81-16.79-103S226.06,102,222,75.6c-2-13.19-3.67-23.88-4.73-31.28-.53-3.69-.92-6.57-1.15-8.52a14.6,14.6,0,0,1-.25-3,15.74,15.74,0,0,1,.68,2.94c.38,1.93.89,4.78,1.53,8.46,1.28,7.37,3,18,5.15,31.22C227.42,101.8,233,138.26,239.18,178.54Z" style="fill:#f5f5f5"></path><path d="M248.64,177.9c-.32,40.74-.61,77.61-.83,104.33,0,13.33-.07,24.12-.09,31.61,0,3.72,0,6.6,0,8.6,0,1,0,1.7,0,2.24a5.58,5.58,0,0,0,0,.76,3.44,3.44,0,0,0,0-.76c0-.54,0-1.28.05-2.24,0-2,.06-4.88.1-8.6,0-7.49.06-18.28.11-31.61,0-26.72-.08-63.59-.13-104.33s-.1-77.59.05-104.28c.08-13.35.19-24.15.32-31.62.07-3.73.14-6.63.21-8.59a16.35,16.35,0,0,1,.23-3,14.6,14.6,0,0,1,.21,3c.06,2,.11,4.86.16,8.6.08,7.46.12,18.26.1,31.61C249.26,100.31,249,137.19,248.64,177.9Z" style="fill:#f5f5f5"></path><path d="M258.1,178.7c-6.83,40.19-13,76.56-17.5,102.93l-5.15,31.22c-.58,3.67-1,6.52-1.33,8.49-.14,1-.25,1.69-.32,2.22a3.9,3.9,0,0,0-.08.76,4.6,4.6,0,0,0,.17-.75c.1-.52.23-1.25.41-2.2.34-2,.84-4.81,1.47-8.47,1.23-7.4,3-18.06,5.17-31.22,4.24-26.4,10.08-62.83,16.54-103.08s12.3-76.67,16.71-103c2.21-13.18,4-23.83,5.37-31.18.66-3.68,1.2-6.53,1.59-8.46a14.9,14.9,0,0,1,.71-2.93,15.63,15.63,0,0,1-.28,3c-.25,1.95-.66,4.82-1.21,8.51-1.11,7.39-2.8,18.07-4.95,31.25C271.13,102.14,265,138.53,258.1,178.7Z" style="fill:#f5f5f5"></path><path d="M267.32,180.92c-13.27,38.65-25.27,73.62-34,99-4.28,12.66-7.74,22.92-10.14,30-1.16,3.54-2.07,6.29-2.69,8.19-.3.92-.52,1.63-.68,2.13a5.5,5.5,0,0,0-.2.74,3.19,3.19,0,0,0,.29-.71c.19-.5.44-1.2.77-2.11.65-1.89,1.6-4.62,2.82-8.14l10.17-30,33-99.27c12.86-38.75,24.56-73.83,33.2-99.17,4.31-12.67,7.85-22.91,10.35-30,1.25-3.53,2.24-6.26,2.94-8.11a14.54,14.54,0,0,1,1.18-2.78,15.75,15.75,0,0,1-.75,2.91c-.57,1.89-1.44,4.67-2.58,8.23-2.29,7.13-5.69,17.41-9.95,30.1C292.59,107.32,280.61,142.31,267.32,180.92Z" style="fill:#f5f5f5"></path><path d="M276.05,184.53l-49.56,92.54c-6.28,11.85-11.36,21.45-14.88,28.11-1.72,3.32-3.06,5.9-4,7.68-.44.86-.77,1.53-1,2a5.45,5.45,0,0,0-.32.7,3.68,3.68,0,0,0,.4-.65l1.1-2,4.1-7.61c3.54-6.66,8.62-16.26,14.9-28.11,12.48-23.81,29.69-56.67,48.7-93s36.22-69.15,48.84-92.86c6.31-11.85,11.46-21.42,15.08-28,1.8-3.3,3.23-5.85,4.21-7.56a15.69,15.69,0,0,1,1.61-2.57A15.15,15.15,0,0,1,344,56c-.86,1.78-2.17,4.39-3.88,7.73-3.42,6.68-8.44,16.32-14.7,28.2C312.91,115.7,295.42,148.42,276.05,184.53Z" style="fill:#f5f5f5"></path><path d="M284.09,189.42l-63.84,83.87L201,298.8l-5.17,7-1.32,1.83a7.37,7.37,0,0,0-.43.64,3.93,3.93,0,0,0,.51-.58l1.39-1.78,5.28-6.89,19.24-25.5,63-84.43c24.58-33,46.89-62.8,63.18-84.3,8.14-10.75,14.77-19.42,19.4-25.38,2.31-3,4.12-5.28,5.37-6.82a15.85,15.85,0,0,1,2-2.3,15.74,15.74,0,0,1-1.65,2.55c-1.14,1.62-2.85,4-5.08,7-4.45,6.09-11,14.84-19.05,25.62C331.57,127,309,156.7,284.09,189.42Z" style="fill:#f5f5f5"></path><path d="M291.25,195.47l-76.48,73.2L191.7,291l-6.23,6.11-1.6,1.61a4.16,4.16,0,0,0-.52.57,5,5,0,0,0,.59-.51l1.66-1.54,6.33-6L215,268.91c19.41-18.93,46.2-45,75.8-73.88s56.37-54.94,75.89-73.71c9.76-9.39,17.7-17,23.23-22.14,2.76-2.6,4.92-4.6,6.4-5.93a15.27,15.27,0,0,1,2.34-2,14.93,14.93,0,0,1-2,2.26c-1.38,1.43-3.45,3.52-6.14,6.19-5.37,5.34-13.2,13-22.92,22.43C348.14,141,321.13,166.92,291.25,195.47Z" style="fill:#f5f5f5"></path><path d="M297.36,202.53l-87.27,60.74-26.36,18.54-7.12,5.09-1.84,1.34a5.3,5.3,0,0,0-.61.49,6.18,6.18,0,0,0,.66-.41l1.89-1.27,7.21-5,26.37-18.51L297,202c33.82-24,64.48-45.76,86.78-61.35,11.14-7.8,20.19-14.07,26.48-18.36,3.14-2.14,5.6-3.79,7.28-4.89a15.71,15.71,0,0,1,2.62-1.58,15.76,15.76,0,0,1-2.37,1.93c-1.6,1.2-4,3-7,5.18-6.16,4.46-15.13,10.85-26.24,18.69C362.26,157.35,331.43,178.84,297.36,202.53Z" style="fill:#f5f5f5"></path><path d="M302.25,210.42l-96,46.74-29,14.3-7.86,4-2,1a5.53,5.53,0,0,0-.67.38,3.71,3.71,0,0,0,.72-.3l2.07-1,7.92-3.83,29-14.28L302,209.87c37.26-18.6,71-35.4,95.57-47.41,12.26-6,22.21-10.83,29.11-14.11,3.45-1.64,6.14-2.89,8-3.72a15.88,15.88,0,0,1,2.85-1.16,17,17,0,0,1-2.65,1.54c-1.77,1-4.4,2.32-7.8,4.05-6.8,3.47-16.68,8.42-28.92,14.48C373.63,175.66,339.72,192.21,302.25,210.42Z" style="fill:#f5f5f5"></path><path d="M305.81,219,203.47,250.45l-31,9.69-8.4,2.69-2.18.73a4.38,4.38,0,0,0-.73.28,5.41,5.41,0,0,0,.76-.19l2.21-.64,8.44-2.57,31-9.67,102-32.39c39.81-12.67,75.89-24.1,102.05-32.21,13.09-4.06,23.69-7.3,31-9.48,3.67-1.09,6.53-1.92,8.47-2.46a16,16,0,0,1,3-.71,16.3,16.3,0,0,1-2.87,1.12c-1.9.67-4.72,1.61-8.36,2.81-7.28,2.39-17.84,5.76-30.9,9.87C381.93,195.55,345.77,206.71,305.81,219Z" style="fill:#f5f5f5"></path><path d="M308,228,201.78,243.39l-32.14,4.83-8.73,1.38-2.27.39a4.46,4.46,0,0,0-.77.16,6.42,6.42,0,0,0,.78-.07l2.28-.3,8.76-1.24,32.15-4.81,106-16.39c41.37-6.42,78.84-12.18,106-16.2,13.58-2,24.57-3.58,32.18-4.61,3.8-.52,6.76-.9,8.77-1.13a16.48,16.48,0,0,1,3.08-.25,17.34,17.34,0,0,1-3,.67c-2,.37-4.93.87-8.72,1.49-7.57,1.25-18.54,3-32.11,5C386.9,216.47,349.39,222,308,228Z" style="fill:#f5f5f5"></path><path d="M140.3,181.6l4.12,1.55-3.58,1a3.73,3.73,0,0,0-2.53,2.43l-1.29,4-1.6-4a3.72,3.72,0,0,0-2.18-2.11l-3.63-1.32,3.93-1.61a3.72,3.72,0,0,0,2.06-2.11l1.42-3.68,1,3.42A3.74,3.74,0,0,0,140.3,181.6Z" style="fill:#ebebeb"></path><path d="M55,358.71l4.12,1.55-3.58,1A3.73,3.73,0,0,0,53,363.7l-1.29,4-1.6-4a3.7,3.7,0,0,0-2.19-2.12l-3.62-1.31,3.92-1.61a3.75,3.75,0,0,0,2.07-2.12l1.42-3.68,1,3.43A3.72,3.72,0,0,0,55,358.71Z" style="fill:#ebebeb"></path><path d="M244.37,418.85l4.12,1.55-3.58,1a3.72,3.72,0,0,0-2.52,2.43l-1.3,4-1.59-4a3.72,3.72,0,0,0-2.19-2.12l-3.62-1.32,3.92-1.61a3.69,3.69,0,0,0,2.06-2.11l1.42-3.68,1,3.42A3.72,3.72,0,0,0,244.37,418.85Z" style="fill:#ebebeb"></path><path d="M324.4,316.26l3.81,1.43-3.31.94a3.44,3.44,0,0,0-2.33,2.24l-1.2,3.65-1.46-3.66a3.47,3.47,0,0,0-2-2l-3.34-1.21,3.62-1.49a3.44,3.44,0,0,0,1.91-1.94l1.3-3.4.94,3.16A3.45,3.45,0,0,0,324.4,316.26Z" style="fill:#ebebeb"></path><path d="M122.05,50.51l3.8,1.43-3.3.94a3.42,3.42,0,0,0-2.33,2.24L119,58.78l-1.47-3.67a3.41,3.41,0,0,0-2-2l-3.34-1.22,3.62-1.48a3.44,3.44,0,0,0,1.9-2l1.31-3.4.94,3.16A3.45,3.45,0,0,0,122.05,50.51Z" style="fill:#ebebeb"></path><path d="M443.47,249.2l4.12,1.55-3.58,1a3.72,3.72,0,0,0-2.52,2.43l-1.3,4-1.59-4a3.72,3.72,0,0,0-2.19-2.12l-3.62-1.31,3.92-1.61a3.72,3.72,0,0,0,2.06-2.11l1.42-3.69,1,3.43A3.72,3.72,0,0,0,443.47,249.2Z" style="fill:#ebebeb"></path><path d="M441.68,345.33l6.29,2.36-5.46,1.55a5.71,5.71,0,0,0-3.85,3.7l-2,6-2.43-6.05a5.63,5.63,0,0,0-3.34-3.23l-5.52-2,6-2.46a5.65,5.65,0,0,0,3.15-3.21l2.16-5.62,1.55,5.22A5.72,5.72,0,0,0,441.68,345.33Z" style="fill:#ebebeb"></path><path d="M356.68,86.12,363,88.49,357.51,90a5.72,5.72,0,0,0-3.86,3.71l-2,6-2.43-6.06a5.69,5.69,0,0,0-3.34-3.23l-5.52-2,6-2.46a5.73,5.73,0,0,0,3.15-3.22l2.16-5.61,1.55,5.22A5.66,5.66,0,0,0,356.68,86.12Z" style="fill:#ebebeb"></path><path d="M384.5,187.33l8.57,3.22-7.44,2.11a7.76,7.76,0,0,0-5.26,5.05l-2.69,8.23-3.31-8.25a7.74,7.74,0,0,0-4.55-4.4l-7.53-2.74,8.15-3.35a7.7,7.7,0,0,0,4.29-4.38l2.95-7.65,2.11,7.11A7.72,7.72,0,0,0,384.5,187.33Z" style="fill:#ebebeb"></path><path d="M189.93,281.18l8.57,3.22-7.44,2.11a7.76,7.76,0,0,0-5.26,5.05l-2.69,8.22-3.31-8.25a7.72,7.72,0,0,0-4.55-4.4l-7.52-2.73,8.15-3.35a7.78,7.78,0,0,0,4.29-4.39l2.94-7.65,2.11,7.12A7.82,7.82,0,0,0,189.93,281.18Z" style="fill:#ebebeb"></path><path d="M100.6,66.66s.08.08.21.27l.57.84a12.84,12.84,0,0,1,1.47,3.62,15.39,15.39,0,0,1,0,6.16A18.87,18.87,0,0,1,99.39,85,18.45,18.45,0,0,1,96,88.35a17.86,17.86,0,0,1-2.13,1.41,19.66,19.66,0,0,1-2.44,1,21.79,21.79,0,0,1-11.32.69,30.21,30.21,0,0,1-11.54-4.95,28.21,28.21,0,0,1-5.06-4.38,15.33,15.33,0,0,1-3.33-6,7.89,7.89,0,0,1-.11-3.55,6.23,6.23,0,0,1,1.67-3.11,7.62,7.62,0,0,1,6.4-2,9.77,9.77,0,0,1,5.68,3.13A15.23,15.23,0,0,1,77,75.94a18.47,18.47,0,0,1,.3,11.32A17.27,17.27,0,0,1,72,95.6,16.71,16.71,0,0,1,68.37,98a17.14,17.14,0,0,1-3.64,1.33,18.26,18.26,0,0,1-6.15.5A17.55,17.55,0,0,1,54.77,99l-.94-.38a1.24,1.24,0,0,1-.31-.15,20.76,20.76,0,0,0,5.08,1.07,18.19,18.19,0,0,0,6-.6,17.05,17.05,0,0,0,3.54-1.35,16,16,0,0,0,3.52-2.36,16.82,16.82,0,0,0,5.07-8.12,17.93,17.93,0,0,0-.34-11,14.52,14.52,0,0,0-3.09-5.09A9.15,9.15,0,0,0,68,68.15a7,7,0,0,0-5.83,1.77,6.14,6.14,0,0,0-1.38,6A14.55,14.55,0,0,0,64,81.72,27.69,27.69,0,0,0,68.93,86a30,30,0,0,0,11.28,4.88,21.23,21.23,0,0,0,11-.61,17,17,0,0,0,2.36-1A18.09,18.09,0,0,0,99,84.68a18.6,18.6,0,0,0,3.42-7.2,15.22,15.22,0,0,0,.16-6A16.31,16.31,0,0,0,100.6,66.66Z" style="fill:#ebebeb"></path><path d="M89.73,304.85s.08.08.21.27l.57.84A12.88,12.88,0,0,1,92,309.57a15.44,15.44,0,0,1,0,6.17,18.93,18.93,0,0,1-3.41,7.42,18.72,18.72,0,0,1-3.4,3.37A14.63,14.63,0,0,1,80.55,329a21.69,21.69,0,0,1-11.32.68,30.21,30.21,0,0,1-11.54-4.95,27.76,27.76,0,0,1-5.06-4.37,15.3,15.3,0,0,1-3.33-6.06,7.88,7.88,0,0,1-.11-3.55,6.22,6.22,0,0,1,1.68-3.1,7.56,7.56,0,0,1,6.39-2,9.81,9.81,0,0,1,5.68,3.12,15.18,15.18,0,0,1,3.2,5.33,18.4,18.4,0,0,1,.3,11.32,17.19,17.19,0,0,1-5.3,8.33,16.35,16.35,0,0,1-3.64,2.38,17.26,17.26,0,0,1-3.63,1.33,18,18,0,0,1-6.15.5,17.53,17.53,0,0,1-3.82-.81l-.94-.37a1.24,1.24,0,0,1-.31-.15,22,22,0,0,0,5.09,1.07,18.15,18.15,0,0,0,6-.6,16.84,16.84,0,0,0,3.54-1.35,16.3,16.3,0,0,0,3.52-2.36,16.73,16.73,0,0,0,5.07-8.13,17.9,17.9,0,0,0-.34-11,14.55,14.55,0,0,0-3.08-5.09,9.19,9.19,0,0,0-5.31-2.92,6.93,6.93,0,0,0-5.83,1.78,6.14,6.14,0,0,0-1.38,6,14.52,14.52,0,0,0,3.18,5.78,27.63,27.63,0,0,0,4.92,4.27,29.87,29.87,0,0,0,11.28,4.89,21.33,21.33,0,0,0,11-.61,19.18,19.18,0,0,0,2.36-1,16.88,16.88,0,0,0,2.08-1.35,18.36,18.36,0,0,0,3.33-3.25,18.66,18.66,0,0,0,3.43-7.21,15.33,15.33,0,0,0,.15-6A15.66,15.66,0,0,0,89.73,304.85Z" style="fill:#ebebeb"></path><path d="M459.35,153.23s.08.08.21.27l.57.84a12.58,12.58,0,0,1,1.46,3.62,15.19,15.19,0,0,1,0,6.16,18.76,18.76,0,0,1-3.42,7.42,18.39,18.39,0,0,1-3.39,3.38,19.31,19.31,0,0,1-2.14,1.41,19,19,0,0,1-2.44,1,21.78,21.78,0,0,1-11.32.69,30.5,30.5,0,0,1-11.54-4.95,28.15,28.15,0,0,1-5.05-4.38,15.18,15.18,0,0,1-3.33-6.06,7.88,7.88,0,0,1-.12-3.55,6.26,6.26,0,0,1,1.68-3.1,7.61,7.61,0,0,1,6.39-2,9.79,9.79,0,0,1,5.69,3.13,15.05,15.05,0,0,1,3.2,5.32,18.47,18.47,0,0,1,.29,11.32,17.12,17.12,0,0,1-5.3,8.33,16.13,16.13,0,0,1-3.63,2.39,18.53,18.53,0,0,1-3.64,1.33,18.24,18.24,0,0,1-6.15.49,17.63,17.63,0,0,1-3.82-.8l-.94-.38a1.55,1.55,0,0,1-.31-.15,21.56,21.56,0,0,0,5.09,1.07,18.21,18.21,0,0,0,6-.6,17.27,17.27,0,0,0,3.54-1.35,15.66,15.66,0,0,0,3.51-2.36,16.83,16.83,0,0,0,5.08-8.12,17.93,17.93,0,0,0-.35-11,14.55,14.55,0,0,0-3.08-5.09,9.21,9.21,0,0,0-5.31-2.92,7,7,0,0,0-5.82,1.78,6.15,6.15,0,0,0-1.39,6,14.54,14.54,0,0,0,3.19,5.78,26.94,26.94,0,0,0,4.92,4.27A29.8,29.8,0,0,0,439,177.45a21.3,21.3,0,0,0,11-.61,16.64,16.64,0,0,0,2.37-1,17.54,17.54,0,0,0,2.07-1.35,18.43,18.43,0,0,0,3.34-3.25,18.78,18.78,0,0,0,3.42-7.21,15.14,15.14,0,0,0,.15-6A16.16,16.16,0,0,0,459.35,153.23Z" style="fill:#ebebeb"></path><path d="M131,246.2a3.51,3.51,0,1,1-3.51-3.51A3.51,3.51,0,0,1,131,246.2Z" style="fill:#ebebeb"></path><path d="M87.67,403a3.51,3.51,0,1,1-3.51-3.51A3.51,3.51,0,0,1,87.67,403Z" style="fill:#ebebeb"></path><path d="M424.42,400.23a3.51,3.51,0,1,1-3.51-3.51A3.51,3.51,0,0,1,424.42,400.23Z" style="fill:#ebebeb"></path><path d="M200.18,94.51A3.51,3.51,0,1,1,196.67,91,3.51,3.51,0,0,1,200.18,94.51Z" style="fill:#ebebeb"></path><path d="M409.24,122.83c-10-1.66-20.12-8.33-27.72-15S368.79,91.32,369.06,81.2,375.63,61,385.14,57.59c10.19-3.69,22.18.78,29.11,9.11s8,22,5.25,32.46c-3.13,11.82-3.83,15.61-10.26,23.67" style="fill:#ebebeb"></path><path d="M413.5,123.38a10.25,10.25,0,0,1-4.17-3.42l-.57,1.27c-.71,1.33-.66,4.33-.46,5.83.06.43.23.94.66,1s.82-.4.94-.85a3.07,3.07,0,0,1,.42-1.31,3.18,3.18,0,0,0,.63,1.29,1.11,1.11,0,0,0,1.31.31,1.13,1.13,0,0,0,.42-1.3,3.39,3.39,0,0,0-.81-1.22,3.36,3.36,0,0,0,1.65.7,1.17,1.17,0,0,0,1.26-1C414.76,124,414.08,123.65,413.5,123.38Z" style="fill:#ebebeb"></path><path d="M410.67,121c.14,0-.09.87-.94,1.36s-1.68.31-1.64.16.68-.23,1.36-.64S410.52,120.91,410.67,121Z" style="fill:#e0e0e0"></path><path d="M417.23,81.29a1.71,1.71,0,0,0-1.79.71c-.77,1.07-.59,2.35-.46,3.56A38.06,38.06,0,0,1,407,113c-.88,1.11-1.89,2.54-1.26,3.82a2.47,2.47,0,0,0,2.73,1.07,5.54,5.54,0,0,0,2.43-1.27,7.25,7.25,0,0,0,1.72-2.24c5.06-10,6.59-19,6-30.34C418.62,83,418.35,81.58,417.23,81.29Z" style="fill:#e0e0e0"></path><path d="M413.86,71.84a1.76,1.76,0,0,0-2.17,2l0-.07a6.77,6.77,0,0,0,1.2,3,2.13,2.13,0,0,0,2.75.59c.86-.62.85-1.92.52-2.93A3.51,3.51,0,0,0,413.86,71.84Z" style="fill:#e0e0e0"></path><path d="M376.68,65.27a1.5,1.5,0,0,1-.16.23l-.48.62c-.1.14-.22.29-.35.45s-.24.36-.38.55c-.27.41-.6.85-.9,1.38l-.49.83c-.16.29-.31.6-.47.92-.34.63-.63,1.34-.94,2.08a28.77,28.77,0,0,0-1.43,5,28.28,28.28,0,0,0-.38,5.22,22.77,22.77,0,0,0,.17,2.28c.05.35.07.7.13,1s.12.64.18.94a15.33,15.33,0,0,0,.37,1.6c.06.24.11.46.17.66s.12.37.18.54l.23.75a.75.75,0,0,1,.07.27,1,1,0,0,1-.12-.25l-.29-.74c-.06-.16-.12-.34-.2-.53l-.19-.65c-.13-.48-.31-1-.42-1.61-.06-.3-.12-.62-.19-.95s-.1-.67-.15-1a22.91,22.91,0,0,1-.2-2.3,25.25,25.25,0,0,1,1.83-10.36c.33-.75.62-1.46,1-2.1.17-.31.32-.63.5-.92l.5-.82c.31-.53.66-1,.94-1.37.15-.19.28-.38.41-.54l.37-.44.52-.59C376.6,65.33,376.67,65.26,376.68,65.27Z" style="fill:#fff"></path><path d="M383.92,60.53a10.8,10.8,0,0,1-2,1.31,10,10,0,0,1-2.13,1.07,10.66,10.66,0,0,1,2-1.31A9.89,9.89,0,0,1,383.92,60.53Z" style="fill:#fff"></path><path d="M378.94,66C371,74.74,371,85.92,377.21,96c2,3.21,4.75,6.12,8.61,6.9a7.84,7.84,0,0,0,3.09,0c5.17-1,6.46-6.08,5.78-10.34-.51-3.15-1.91-6.08-2.81-9.15s-1.25-6.51.26-9.33,4.74-4.82,4-8.37a5.61,5.61,0,0,0-3.22-3.81A9.26,9.26,0,0,0,389,61.1a13.14,13.14,0,0,0-9.1,3.89Z" style="fill:#f5f5f5"></path><path d="M280.91,286.32c-3.22-9.58-2.1-21.68.23-31.52s8.57-19,17.63-23.51,20.88-3.68,28.4,3.09c8.05,7.25,9.74,19.94,5.64,30s-15.63,17.42-26.18,19.9c-11.91,2.79-15.57,4-25.72,2.07" style="fill:#ebebeb"></path><path d="M282.44,290.34a10.23,10.23,0,0,1,1.05-5.29l-1.39.09c-1.51,0-4.13,1.46-5.36,2.34-.35.25-.72.65-.59,1.07s.74.53,1.19.42a3.25,3.25,0,0,1,1.36-.25,3.35,3.35,0,0,0-.85,1.17,1.15,1.15,0,0,0,.35,1.31,1.13,1.13,0,0,0,1.34-.25,3.29,3.29,0,0,0,.69-1.29,3.39,3.39,0,0,0,.17,1.79,1.17,1.17,0,0,0,1.5.62C282.45,291.75,282.46,291,282.44,290.34Z" style="fill:#ebebeb"></path><path d="M283.23,286.71c0,.15-.81.33-1.64-.19s-1.06-1.34-.91-1.38.52.5,1.2.9S283.22,286.55,283.23,286.71Z" style="fill:#e0e0e0"></path><path d="M321.33,273.84a1.72,1.72,0,0,0-1.46-1.25c-1.31-.17-2.35.59-3.36,1.28a38.1,38.1,0,0,1-28,5.89c-1.4-.26-3.14-.47-4,.68a2.48,2.48,0,0,0,.34,2.92,5.57,5.57,0,0,0,2.26,1.54,7.38,7.38,0,0,0,2.79.47c11.24-.26,19.85-3.11,29.61-8.94C320.52,275.85,321.61,275,321.33,273.84Z" style="fill:#e0e0e0"></path><path d="M328.09,266.43a1.76,1.76,0,0,0-2.75-1l.05-.05a6.88,6.88,0,0,0-2.06,2.46,2.15,2.15,0,0,0,.78,2.71c1,.46,2.09-.16,2.83-.93A3.49,3.49,0,0,0,328.09,266.43Z" style="fill:#e0e0e0"></path><path d="M316.41,230.52l-.27,0-.78-.13-.56-.1-.67-.08c-.48,0-1-.13-1.64-.14l-1,0c-.33,0-.67,0-1,0-.72,0-1.48.08-2.29.15a28.21,28.21,0,0,0-5.11,1.11,29,29,0,0,0-4.79,2.11c-.69.42-1.35.8-1.93,1.23-.29.21-.58.39-.85.6l-.74.6a16.28,16.28,0,0,0-1.24,1.08c-.18.16-.35.31-.5.46l-.39.41-.56.56c-.12.13-.2.19-.2.18a1.25,1.25,0,0,1,.16-.22l.52-.6.38-.43c.14-.15.31-.3.48-.47a13.87,13.87,0,0,1,1.22-1.12l.74-.62c.26-.21.56-.41.85-.62.58-.44,1.24-.83,1.94-1.26A26.93,26.93,0,0,1,303,231a26.2,26.2,0,0,1,5.17-1.1,20.86,20.86,0,0,1,2.3-.13c.36,0,.71,0,1.05,0l1,.06c.62,0,1.17.13,1.65.19.24,0,.47.06.67.1l.56.13.77.18C316.33,230.48,316.42,230.51,316.41,230.52Z" style="fill:#fff"></path><path d="M324,234.68a10.39,10.39,0,0,1-2.1-1.14,11.18,11.18,0,0,1-1.95-1.38,9.82,9.82,0,0,1,2.1,1.14A10.72,10.72,0,0,1,324,234.68Z" style="fill:#fff"></path><path d="M316.87,232.84c-11.48-2.87-21.35,2.4-27.34,12.6-1.91,3.26-3.17,7.07-2,10.85a7.88,7.88,0,0,0,1.44,2.73c3.34,4.08,8.41,2.84,11.84.23,2.55-1.93,4.47-4.54,6.76-6.77s5.16-4.17,8.35-4.16,6.49,1.92,9.27-.41a5.56,5.56,0,0,0,1.85-4.62,9.26,9.26,0,0,0-1.1-3.83,13.14,13.14,0,0,0-7.71-6.2Z" style="fill:#f5f5f5"></path><path d="M108.51,397.9c8.43-5.59,20.41-7.62,30.52-7.9s20.56,3.39,27.25,11,8.94,19.24,4.33,28.24c-4.94,9.64-16.77,14.54-27.51,13.17s-20.86-10.62-26-20.17c-5.77-10.79-7.84-14-8.63-24.32" style="fill:#ebebeb"></path><path d="M105,400.4a10.27,10.27,0,0,1,5.38-.34l-.44-1.32c-.39-1.46-2.48-3.62-3.64-4.58-.34-.27-.82-.53-1.19-.29s-.32.85-.1,1.26a3.22,3.22,0,0,1,.59,1.24,3.28,3.28,0,0,0-1.35-.51,1.11,1.11,0,0,0-1.17.67,1.13,1.13,0,0,0,.58,1.23,3.34,3.34,0,0,0,1.43.34,3.34,3.34,0,0,0-1.69.62,1.16,1.16,0,0,0-.21,1.61C103.66,400.78,104.41,400.59,105,400.4Z" style="fill:#ebebeb"></path><path d="M108.73,400.23c-.13.07-.53-.69-.24-1.63s1-1.37,1.1-1.24-.34.64-.56,1.4S108.89,400.18,108.73,400.23Z" style="fill:#e0e0e0"></path><path d="M131,433.74a1.72,1.72,0,0,0,.82-1.74c-.16-1.3-1.17-2.11-2.09-2.91a38.07,38.07,0,0,1-12.9-25.54c-.11-1.41-.35-3.15-1.68-3.65A2.46,2.46,0,0,0,112.4,401a5.42,5.42,0,0,0-.91,2.58,7.42,7.42,0,0,0,.26,2.81c3.15,10.79,8.12,18.38,16.27,26.31C128.83,433.47,130,434.29,131,433.74Z" style="fill:#e0e0e0"></path><path d="M139.88,438.36a1.75,1.75,0,0,0,.25-2.91l.06,0a6.83,6.83,0,0,0-2.9-1.35,2.14,2.14,0,0,0-2.42,1.44c-.2,1.05.7,2,1.63,2.51A3.51,3.51,0,0,0,139.88,438.36Z" style="fill:#e0e0e0"></path><path d="M171.57,417.83a1.14,1.14,0,0,1,0-.27c0-.21-.05-.47-.08-.78s0-.37,0-.57-.06-.43-.09-.67c-.08-.48-.14-1-.29-1.62-.06-.3-.13-.61-.2-.94s-.19-.65-.28-1c-.18-.7-.46-1.41-.73-2.17a29,29,0,0,0-2.39-4.66,28.37,28.37,0,0,0-3.28-4.08c-.58-.56-1.12-1.1-1.68-1.55-.27-.23-.53-.47-.8-.66l-.77-.57a16.42,16.42,0,0,0-1.36-.92L159,397l-.5-.27-.69-.39-.23-.15a1,1,0,0,1,.26.1l.71.35.51.25.59.34c.41.26.91.53,1.4.9l.78.56c.28.19.54.43.82.65.57.45,1.12,1,1.71,1.55a27.18,27.18,0,0,1,3.33,4.11,28,28,0,0,1,2.4,4.72c.26.76.54,1.49.71,2.19.09.35.2.69.27,1s.13.65.19.95c.13.6.18,1.16.24,1.64,0,.24.06.47.08.68s0,.39,0,.57,0,.58,0,.79A1.1,1.1,0,0,1,171.57,417.83Z" style="fill:#fff"></path><path d="M169.5,426.23a10.5,10.5,0,0,1,.57-2.32,10.09,10.09,0,0,1,.83-2.23,21.12,21.12,0,0,1-1.4,4.55Z" style="fill:#fff"></path><path d="M169.44,418.87c-.18-11.83-7.81-20-19.21-23.17-3.64-1-7.65-1.24-11,.82a7.94,7.94,0,0,0-2.27,2.09c-3.08,4.28-.58,8.86,2.83,11.51,2.52,2,5.54,3.15,8.29,4.78s5.35,3.91,6.16,7-.18,6.76,2.78,8.85a5.58,5.58,0,0,0,5,.6,9.05,9.05,0,0,0,3.41-2.05,13.14,13.14,0,0,0,4-9.05Z" style="fill:#f5f5f5"></path><path d="M364.26,413.62c-7.72,6.53-19.38,9.94-29.39,11.4s-20.82-1-28.35-7.74-11.11-18.06-7.58-27.54c3.78-10.15,15-16.4,25.79-16.28s21.95,8.12,28.13,17c7,10,9.42,13,11.4,23.15" style="fill:#ebebeb"></path><path d="M367.43,410.73a10.14,10.14,0,0,1-5.3,1l.6,1.26c.55,1.41,2.87,3.31,4.14,4.13.37.23.87.43,1.21.15s.23-.88,0-1.26a3.15,3.15,0,0,1-.73-1.17,3.3,3.3,0,0,0,1.4.36,1.14,1.14,0,0,0,1.08-.8,1.11,1.11,0,0,0-.72-1.16,3.25,3.25,0,0,0-1.46-.17,3.44,3.44,0,0,0,1.61-.82,1.15,1.15,0,0,0,0-1.62C368.74,410.19,368,410.47,367.43,410.73Z" style="fill:#ebebeb"></path><path d="M363.77,411.33c.13-.08.6.63.43,1.6s-.86,1.47-.95,1.35.27-.67.39-1.45S363.62,411.4,363.77,411.33Z" style="fill:#e0e0e0"></path><path d="M337.78,380.64a1.71,1.71,0,0,0-.62,1.82c.32,1.28,1.41,2,2.42,2.65A38.09,38.09,0,0,1,355.36,409c.27,1.39.72,3.09,2.09,3.43A2.47,2.47,0,0,0,360,411a5.55,5.55,0,0,0,.6-2.67,7.09,7.09,0,0,0-.59-2.76c-4.37-10.36-10.19-17.32-19.21-24.25C339.94,380.66,338.73,380,337.78,380.64Z" style="fill:#e0e0e0"></path><path d="M328.39,377.08a1.77,1.77,0,0,0,.09,2.93l-.06,0a6.85,6.85,0,0,0,3,1,2.15,2.15,0,0,0,2.23-1.72c.08-1.06-.92-1.89-1.9-2.3A3.53,3.53,0,0,0,328.39,377.08Z" style="fill:#e0e0e0"></path><path d="M299.31,401.16a1.23,1.23,0,0,1,.07.27c.05.2.1.46.17.77s.07.35.11.55.12.42.18.66a16.33,16.33,0,0,0,.47,1.57l.31.91c.11.31.26.63.39,1,.26.67.62,1.34,1,2.06a28.53,28.53,0,0,0,2.92,4.35,27.33,27.33,0,0,0,3.73,3.67c.64.49,1.24,1,1.85,1.35.3.19.58.4.86.57l.84.47c.52.32,1,.54,1.46.76.22.1.42.21.61.29l.52.21.73.31.25.12a.75.75,0,0,1-.27-.07l-.75-.26-.53-.19-.63-.27c-.44-.21-1-.42-1.49-.73l-.85-.46c-.29-.16-.57-.37-.88-.56a22.12,22.12,0,0,1-1.88-1.34,27.24,27.24,0,0,1-3.79-3.69,26.87,26.87,0,0,1-2.92-4.41,22.47,22.47,0,0,1-1-2.09c-.13-.34-.28-.66-.38-1s-.2-.62-.3-.92a15,15,0,0,1-.43-1.6c-.06-.23-.12-.45-.16-.66s-.06-.39-.09-.56c0-.32-.08-.58-.11-.79A1.1,1.1,0,0,1,299.31,401.16Z" style="fill:#fff"></path><path d="M300.39,392.58a10.87,10.87,0,0,1-.3,2.37,10.23,10.23,0,0,1-.56,2.31,9.72,9.72,0,0,1,.29-2.36A9.92,9.92,0,0,1,300.39,392.58Z" style="fill:#fff"></path><path d="M301.3,399.88c1.56,11.73,10.08,19,21.78,20.78,3.73.58,7.74.35,10.84-2.09a8.1,8.1,0,0,0,2-2.35c2.56-4.61-.46-8.87-4.15-11.1-2.73-1.65-5.87-2.48-8.78-3.78s-5.78-3.27-6.95-6.24-.6-6.74-3.79-8.47a5.59,5.59,0,0,0-5,0,9.16,9.16,0,0,0-3.15,2.43,13.19,13.19,0,0,0-2.93,9.45Z" style="fill:#f5f5f5"></path><path d="M83.14,273c-8.21,1.29-17.86-1.31-25.51-4.56S43.42,258.88,41,250.91s-.08-17.44,6.45-22.58c7-5.52,17.52-5.12,25.08-.41S84.5,243,85,251.9c.61,10,1,13.18-1.9,21.13" style="fill:#ebebeb"></path><path d="M86.61,272.36a8.42,8.42,0,0,1-4.14-1.59l-.12,1.14c-.21,1.22.61,3.55,1.15,4.66.16.33.43.68.78.63s.54-.52.51-.9a2.69,2.69,0,0,1,0-1.13,2.77,2.77,0,0,0,.83.84.93.93,0,0,0,1.11-.1.92.92,0,0,0,0-1.12,2.68,2.68,0,0,0-1-.74,2.78,2.78,0,0,0,1.48.11,1,1,0,0,0,.71-1.13C87.76,272.54,87.13,272.42,86.61,272.36Z" style="fill:#ebebeb"></path><path d="M83.78,271.21c.12,0,.16.7-.38,1.31s-1.23.67-1.25.54.48-.35.9-.85S83.65,271.2,83.78,271.21Z" style="fill:#e0e0e0"></path><path d="M78.65,238.54a1.41,1.41,0,0,0-1.21,1,4,4,0,0,0,.56,2.89A31.32,31.32,0,0,1,78.88,266c-.4,1.1-.82,2.47,0,3.31a2,2,0,0,0,2.41.13,4.58,4.58,0,0,0,1.56-1.62,5.9,5.9,0,0,0,.76-2.19c1.36-9.14.25-16.52-3.12-25.24C80.16,239.48,79.6,238.48,78.65,238.54Z" style="fill:#e0e0e0"></path><path d="M73.58,232a1.45,1.45,0,0,0-1.19,2.09l0,0a5.53,5.53,0,0,0,1.7,2,1.76,1.76,0,0,0,2.3-.25,2.15,2.15,0,0,0-.35-2.43A2.9,2.9,0,0,0,73.58,232Z" style="fill:#e0e0e0"></path><path d="M42.86,236.51l-.06.22-.22.61-.16.44c-.05.16-.1.34-.15.53a12.15,12.15,0,0,0-.35,1.31c-.05.24-.11.5-.17.77s-.08.55-.13.84c-.1.58-.14,1.21-.19,1.87a22.77,22.77,0,0,0,.18,4.3,23.1,23.1,0,0,0,1,4.17c.24.62.46,1.21.73,1.74.12.26.23.53.36.77s.26.47.38.69c.23.44.5.81.71,1.15.11.17.2.33.3.47l.28.38.38.52.12.19s-.06-.05-.16-.16l-.41-.5-.3-.37c-.1-.13-.2-.29-.32-.46-.22-.33-.5-.7-.74-1.14l-.39-.69c-.14-.24-.25-.5-.39-.77-.27-.53-.5-1.12-.74-1.74a21.86,21.86,0,0,1-1.08-4.22,21.57,21.57,0,0,1-.17-4.34c.06-.67.1-1.3.21-1.89.06-.29.09-.58.15-.85s.13-.52.19-.77a13.15,13.15,0,0,1,.38-1.31c.06-.19.11-.37.17-.53s.12-.3.18-.43l.25-.6C42.81,236.57,42.85,236.5,42.86,236.51Z" style="fill:#fff"></path><path d="M47.28,230.94a8.54,8.54,0,0,1-1.22,1.54,8.26,8.26,0,0,1-1.38,1.38,8,8,0,0,1,1.21-1.53A8.92,8.92,0,0,1,47.28,230.94Z" style="fill:#fff"></path><path d="M44.8,236.46c-3.92,8.91-1,17.63,6.41,23.9,2.38,2,5.29,3.56,8.51,3.17a6.57,6.57,0,0,0,2.42-.79c3.77-2.14,3.47-6.42,1.83-9.56-1.21-2.33-3.06-4.26-4.56-6.42s-2.65-4.76-2.2-7.35,2.45-5,.95-7.57a4.59,4.59,0,0,0-3.48-2.14,7.56,7.56,0,0,0-3.26.37,10.82,10.82,0,0,0-6.1,5.38Z" style="fill:#f5f5f5"></path><path d="M273.08,81.05c-8-2.31-15.64-8.74-21.2-14.93s-8.82-14.69-7.62-22.92,7.3-15.84,15.39-17.75c8.68-2,18,2.77,22.9,10.24s4.45,18.72,1.18,27c-3.7,9.36-4.63,12.38-10.65,18.35" style="fill:#ebebeb"></path><path d="M276.5,81.9a8.32,8.32,0,0,1-3.07-3.19l-.6,1c-.7,1-.95,3.48-.93,4.72,0,.36.1.79.45.9s.7-.25.84-.61a2.69,2.69,0,0,1,.47-1,2.73,2.73,0,0,0,.39,1.12.82.82,0,0,0,1.51-.65,2.67,2.67,0,0,0-.55-1.07,2.78,2.78,0,0,0,1.29.73,1,1,0,0,0,1.12-.73C277.47,82.55,277,82.18,276.5,81.9Z" style="fill:#ebebeb"></path><path d="M274.42,79.67c.11,0-.15.69-.9,1s-1.4.08-1.35,0,.58-.12,1.17-.39S274.31,79.6,274.42,79.67Z" style="fill:#e0e0e0"></path><path d="M283.58,47.89a1.4,1.4,0,0,0-1.53.41,4,4,0,0,0-.71,2.86,31.27,31.27,0,0,1-9.14,21.67c-.83.83-1.78,1.9-1.39,3A2,2,0,0,0,272.94,77a4.55,4.55,0,0,0,2.1-.8,6.13,6.13,0,0,0,1.62-1.67c5.09-7.71,7.2-14.86,7.83-24.2C284.56,49.38,284.47,48.24,283.58,47.89Z" style="fill:#e0e0e0"></path><path d="M281.74,39.85a1.44,1.44,0,0,0-2,1.39v-.05a5.5,5.5,0,0,0,.7,2.54,1.75,1.75,0,0,0,2.19.74,2.16,2.16,0,0,0,.7-2.35A2.89,2.89,0,0,0,281.74,39.85Z" style="fill:#e0e0e0"></path><path d="M252,30.91a1.14,1.14,0,0,1-.15.18l-.45.46-.33.33-.37.42c-.26.3-.57.63-.87,1l-.47.63c-.17.21-.31.46-.48.7-.34.48-.64,1-1,1.61a23.43,23.43,0,0,0-1.64,4,22.46,22.46,0,0,0-.82,4.23c0,.66-.1,1.28-.08,1.87,0,.3,0,.58,0,.86s0,.53.05.78c0,.5.11,1,.15,1.35,0,.2,0,.38.08.55s.07.32.09.46.09.46.13.63a.8.8,0,0,1,0,.23,1.8,1.8,0,0,1-.07-.22c0-.17-.1-.37-.16-.62l-.12-.46c0-.17-.06-.35-.09-.55-.06-.4-.16-.85-.19-1.35,0-.26,0-.52-.07-.79s0-.57,0-.86c0-.6,0-1.23.06-1.9a22.1,22.1,0,0,1,.81-4.28,22.68,22.68,0,0,1,1.68-4,18.55,18.55,0,0,1,1-1.61c.17-.25.33-.49.5-.71l.49-.62a12.5,12.5,0,0,1,.9-1l.38-.4.34-.32.49-.44A.78.78,0,0,1,252,30.91Z" style="fill:#fff"></path><path d="M258.37,27.74a8.35,8.35,0,0,1-1.75.88,8.26,8.26,0,0,1-1.85.67,8.6,8.6,0,0,1,1.76-.88A8.28,8.28,0,0,1,258.37,27.74Z" style="fill:#fff"></path><path d="M253.79,31.69c-7.32,6.42-8.39,15.55-4.3,24.38,1.31,2.81,3.29,5.46,6.37,6.46a6.39,6.39,0,0,0,2.53.31c4.32-.35,5.86-4.35,5.7-7.9-.11-2.62-1-5.14-1.41-7.73s-.4-5.44,1.1-7.6,4.34-3.48,4.07-6.45a4.6,4.6,0,0,0-2.26-3.42,7.6,7.6,0,0,0-3.1-1,10.77,10.77,0,0,0-7.8,2.3Z" style="fill:#f5f5f5"></path></g><g id="freepik--Floor--inject-226"><path d="M463.73,443.31a22.52,22.52,0,0,1-4.41.3c-2.9.09-7.18.17-12.69.24-11,.14-27,.24-46.67.3-39.42.13-93.86.12-154,0l-154-.46-46.67-.23-12.69-.09-3.3,0-1.12,0s.38,0,1.12,0l3.3,0H45.27l46.68.06,154,.31,154,.15,46.67-.14c5.51,0,9.79-.09,12.69-.14,1.45,0,2.56-.06,3.3-.1A4.62,4.62,0,0,0,463.73,443.31Z" style="fill:#263238"></path></g><g id="freepik--Balloons--inject-226"><path d="M97.69,208.23c-12.2-2.47-24.4-11.12-33.45-19.67s-15-20.85-14.18-33.28,8.95-24.53,20.8-28.36c12.69-4.1,27.26,1.92,35.42,12.47s8.92,27.39,5.06,40.16C107,194,106,198.59,97.69,208.23" style="fill:#9A1750"></path><path d="M102.91,209.08a12.42,12.42,0,0,1-5-4.38l-.76,1.54c-.93,1.61-1,5.3-.82,7.15.06.53.25,1.17.78,1.29s1-.46,1.18-1a3.93,3.93,0,0,1,.57-1.6,4.26,4.26,0,0,0,.73,1.62,1.23,1.23,0,0,0,2.17-1.15,4.13,4.13,0,0,0-1-1.54,4,4,0,0,0,2,.93,1.44,1.44,0,0,0,1.59-1.21C104.43,209.94,103.61,209.45,102.91,209.08Z" style="fill:#9A1750"></path><path d="M99.53,206c.18.06-.14,1.06-1.21,1.63s-2.08.3-2,.12.85-.26,1.7-.73S99.35,205.92,99.53,206Z" style="fill:#263238"></path><g style="opacity:0.2"><path d="M109.31,157.47a2.12,2.12,0,0,0-2.23.79c-1,1.28-.82,2.87-.71,4.36a46.9,46.9,0,0,1-11,33.46c-1.14,1.33-2.44,3.06-1.72,4.65A3,3,0,0,0,97,202.17a6.81,6.81,0,0,0,3-1.46,9,9,0,0,0,2.22-2.68C108.89,185.9,111.16,175,111,161,111,159.58,110.68,157.87,109.31,157.47Z"></path></g><g style="opacity:0.2"><path d="M105.58,145.69a2.18,2.18,0,0,0-2.76,2.32l0-.08a8.36,8.36,0,0,0,1.35,3.71,2.64,2.64,0,0,0,3.36.84c1.09-.73,1.12-2.33.77-3.59A4.35,4.35,0,0,0,105.58,145.69Z"></path></g><path d="M60.12,136l-.2.28-.62.75-.45.53c-.16.2-.32.43-.5.67a18.73,18.73,0,0,0-1.16,1.66c-.21.31-.42.65-.64,1s-.41.73-.62,1.11c-.45.76-.83,1.63-1.25,2.53a34.19,34.19,0,0,0-2,6.13,35.63,35.63,0,0,0-.7,6.41c0,1,0,1.93.11,2.81,0,.44.06.87.12,1.27s.12.79.18,1.17a20.09,20.09,0,0,0,.39,2c.06.29.11.56.18.81l.19.67.26.94a1.17,1.17,0,0,1,.07.33,1.12,1.12,0,0,1-.13-.31l-.33-.92c-.06-.21-.14-.43-.22-.67s-.14-.52-.21-.81a18.23,18.23,0,0,1-.44-2c-.07-.38-.13-.77-.2-1.17s-.09-.84-.14-1.28a28.27,28.27,0,0,1-.14-2.84,33.65,33.65,0,0,1,.67-6.48,34,34,0,0,1,2-6.19,27.09,27.09,0,0,1,1.29-2.53c.22-.39.42-.77.65-1.12s.44-.67.66-1a19.5,19.5,0,0,1,1.21-1.64c.19-.23.35-.46.52-.65l.48-.52.67-.71C60,136.07,60.11,136,60.12,136Z" style="fill:#fff"></path><path d="M69.23,130.49A13.2,13.2,0,0,1,66.71,132,13,13,0,0,1,64,133.24a13,13,0,0,1,2.51-1.53A12.19,12.19,0,0,1,69.23,130.49Z" style="fill:#fff"></path><g style="opacity:0.1"><path d="M64.37,137.22c-7.23,3.52-10.07,10.57-8.74,18.5.43,2.53,1.43,5.07,3.67,6.55a5.48,5.48,0,0,0,1.94.79c3.52.67,5.63-2.19,6.28-5.05a51.64,51.64,0,0,0,.55-6.48c.22-2.16.88-4.42,2.54-5.81s4.22-1.83,4.66-4.26a3.83,3.83,0,0,0-1.06-3.22A6.33,6.33,0,0,0,72,136.73a8.94,8.94,0,0,0-6.72.14Z" style="fill:#fff"></path></g><path d="M354.53,364.51c-7.16-11.5-9.44-27.6-9.45-41.15s5.31-27.41,15.71-36.09,26.09-11.25,38-4.75c12.73,7,18.86,23,16.62,37.32s-15,27.53-28,34c-14.66,7.32-19.08,10-32.88,10.65" style="fill:#9A1750"></path><path d="M357.76,369.27a13.6,13.6,0,0,1-.26-7.21l-1.78.55c-2,.46-4.94,3.17-6.27,4.7-.38.44-.73,1.07-.44,1.57s1.13.47,1.68.19a4.37,4.37,0,0,1,1.69-.74,4.34,4.34,0,0,0-.73,1.78,1.49,1.49,0,0,0,.85,1.59,1.52,1.52,0,0,0,1.68-.73,4.4,4.4,0,0,0,.5-1.9,4.5,4.5,0,0,0,.77,2.28,1.56,1.56,0,0,0,2.15.35C358.22,371.11,358,370.1,357.76,369.27Z" style="fill:#9A1750"></path><path d="M357.66,364.3c.09.18-.94.68-2.19.26s-1.79-1.42-1.61-1.51.84.48,1.85.8S357.61,364.09,357.66,364.3Z" style="fill:#263238"></path><g style="opacity:0.2"><path d="M403.35,335.75a2.29,2.29,0,0,0-2.29-1.17c-1.76.18-2.88,1.49-4,2.7a51,51,0,0,1-34.67,16.33c-1.9.09-4.23.35-5,2.11a3.31,3.31,0,0,0,1.34,3.7,7.38,7.38,0,0,0,3.42,1.31,9.84,9.84,0,0,0,3.78-.25c14.56-3.81,24.91-10.18,35.83-20.81C402.91,338.62,404.06,337.14,403.35,335.75Z"></path></g><g style="opacity:0.2"><path d="M409.87,324a2.36,2.36,0,0,0-3.89-.45l0-.07a9,9,0,0,0-1.92,3.83A2.86,2.86,0,0,0,406,330.6c1.39.31,2.68-.85,3.41-2.08A4.7,4.7,0,0,0,409.87,324Z"></path></g><path d="M383.55,280.81a1.45,1.45,0,0,1-.36.05l-1.06.07-.76.05-.9.1c-.64.09-1.38.14-2.18.32l-1.26.24c-.43.09-.88.22-1.34.34-.94.21-1.91.56-2.93.9a36.94,36.94,0,0,0-6.32,3,38,38,0,0,0-5.59,4.23c-.77.76-1.52,1.46-2.14,2.19-.32.37-.64.7-.92,1.05s-.54.68-.79,1c-.52.63-.91,1.26-1.28,1.79l-.51.75-.38.66-.55.9a2,2,0,0,1-.21.31,1.25,1.25,0,0,1,.15-.34l.48-.94.36-.68c.14-.24.31-.49.49-.77a19.87,19.87,0,0,1,1.24-1.84l.78-1c.27-.36.59-.7.91-1.07a29.31,29.31,0,0,1,2.14-2.24,33.62,33.62,0,0,1,12-7.33,29.43,29.43,0,0,1,3-.88c.47-.11.92-.24,1.36-.32l1.28-.22a20.26,20.26,0,0,1,2.2-.26c.33,0,.63-.07.91-.08h1.83A1.41,1.41,0,0,1,383.55,280.81Z" style="fill:#fff"></path><path d="M394.72,283.89a13.79,13.79,0,0,1-3.08-.84,13.59,13.59,0,0,1-3-1.2,28.11,28.11,0,0,1,6.05,2Z" style="fill:#fff"></path><g style="opacity:0.1"><path d="M384.87,283.7c-15.85-.19-27.08,9.72-31.74,24.87-1.48,4.83-1.95,10.2.69,14.77a10.7,10.7,0,0,0,2.72,3.12c5.62,4.28,11.84,1.1,15.51-3.36,2.72-3.31,4.42-7.31,6.7-10.92s5.45-7,9.61-8,9.05.49,11.95-3.4a7.49,7.49,0,0,0,1-6.6,12.36,12.36,0,0,0-2.63-4.64,17.53,17.53,0,0,0-12-5.7Z" style="fill:#fff"></path></g><path d="M170.4,91.17c-9-2.94-17.41-10.53-23.48-17.78s-9.44-17-7.76-26.33,8.91-17.7,18.18-19.54c9.93-2,20.38,3.85,25.6,12.52s4.31,21.43.27,30.71c-4.56,10.48-5.73,13.88-12.81,20.42" style="fill:#9A1750"></path><path d="M174.26,92.27a9.4,9.4,0,0,1-3.37-3.74l-.71,1.09c-.85,1.13-1.22,3.91-1.25,5.32,0,.41.09.91.47,1s.82-.25,1-.65a2.83,2.83,0,0,1,.57-1.15,3.15,3.15,0,0,0,.4,1.28.94.94,0,0,0,1.74-.68,3.35,3.35,0,0,0-.58-1.24,3.07,3.07,0,0,0,1.43.88,1.08,1.08,0,0,0,1.3-.78C175.32,93.05,174.75,92.61,174.26,92.27Z" style="fill:#9A1750"></path><path d="M172,89.66c.13.06-.2.78-1.06,1.12s-1.59,0-1.54-.09.67-.12,1.35-.4S171.85,89.57,172,89.66Z" style="fill:#263238"></path><g style="opacity:0.2"><path d="M183.63,53.94a1.58,1.58,0,0,0-1.75.4,4.56,4.56,0,0,0-.92,3.22,35.59,35.59,0,0,1-11.23,24.25c-1,.9-2.1,2.09-1.7,3.35a2.3,2.3,0,0,0,2.37,1.38,5.23,5.23,0,0,0,2.42-.83,6.76,6.76,0,0,0,1.9-1.83c6.09-8.56,8.76-16.6,9.85-27.17C184.68,55.67,184.63,54.36,183.63,53.94Z"></path></g><g style="opacity:0.2"><path d="M181.85,44.73a1.65,1.65,0,0,0-2.28,1.5v-.06a6.4,6.4,0,0,0,.69,2.91,2,2,0,0,0,2.46.94,2.45,2.45,0,0,0,.9-2.64A3.3,3.3,0,0,0,181.85,44.73Z"></path></g><path d="M148.44,33.42a1,1,0,0,1-.17.19l-.53.51-.39.36-.43.46c-.31.34-.68.7-1,1.15l-.56.69c-.2.24-.37.52-.57.79-.41.53-.77,1.15-1.17,1.79a27,27,0,0,0-2,4.45,26,26,0,0,0-1.09,4.76c-.07.75-.16,1.46-.16,2.13,0,.34,0,.66,0,1l0,.9c0,.57.08,1.08.12,1.53,0,.22,0,.44.06.63s.07.36.09.52.08.53.12.73a1,1,0,0,1,0,.26.9.9,0,0,1-.08-.25c0-.19-.09-.43-.16-.72s-.07-.34-.11-.52,0-.41-.08-.63a13.06,13.06,0,0,1-.16-1.54c0-.29,0-.59,0-.91s0-.63,0-1a20.91,20.91,0,0,1,.14-2.16,25.91,25.91,0,0,1,1.08-4.82,26.19,26.19,0,0,1,2.07-4.48c.41-.65.78-1.27,1.19-1.8.21-.27.39-.54.59-.78l.58-.69c.36-.45.75-.8,1.06-1.13l.45-.45.41-.35.57-.47C148.37,33.46,148.44,33.41,148.44,33.42Z" style="fill:#fff"></path><path d="M155.8,30.07a10.43,10.43,0,0,1-2,.92,9.51,9.51,0,0,1-2.12.69,10.16,10.16,0,0,1,2-.93A9.59,9.59,0,0,1,155.8,30.07Z" style="fill:#fff"></path><g style="opacity:0.1"><path d="M150.44,34.37c-8.56,7-10.13,17.33-5.84,27.51,1.37,3.25,3.53,6.33,7,7.59a7.5,7.5,0,0,0,2.85.45c4.92-.22,6.83-4.71,6.79-8.74,0-3-.9-5.88-1.3-8.84s-.24-6.19,1.55-8.58,5.06-3.79,4.88-7.17a5.25,5.25,0,0,0-2.43-4,8.72,8.72,0,0,0-3.48-1.31,12.34,12.34,0,0,0-8.95,2.31Z" style="fill:#fff"></path></g><path d="M376.82,230.34c-4.11-12-2.79-27.13.05-39.47s10.59-23.85,21.89-29.56,26.12-4.77,35.58,3.65c10.13,9,12.34,24.9,7.29,37.49s-19.44,21.92-32.62,25.1c-14.89,3.59-19.48,5.08-32.19,2.79" style="fill:#455a64"></path><path d="M378.76,235.36a12.79,12.79,0,0,1,1.28-6.63l-1.74.12c-1.89,0-5.16,1.86-6.69,3-.44.32-.9.82-.73,1.34s.92.67,1.49.53a3.74,3.74,0,0,1,1.69-.32,4,4,0,0,0-1,1.46,1.39,1.39,0,0,0,.44,1.63,1.42,1.42,0,0,0,1.68-.31,4.19,4.19,0,0,0,.86-1.63,4.14,4.14,0,0,0,.22,2.24,1.45,1.45,0,0,0,1.88.77C378.79,237.13,378.8,236.16,378.76,235.36Z" style="fill:#455a64"></path><path d="M379.72,230.81c0,.18-1,.42-2.06-.23s-1.33-1.66-1.14-1.71.66.61,1.51,1.11S379.71,230.61,379.72,230.81Z" style="fill:#263238"></path><g style="opacity:0.2"><path d="M427.33,214.41a2.16,2.16,0,0,0-1.84-1.55c-1.64-.21-2.94.76-4.19,1.62a47.69,47.69,0,0,1-35,7.59c-1.75-.32-3.93-.57-5,.88a3.07,3.07,0,0,0,.44,3.65,6.81,6.81,0,0,0,2.84,1.91,9,9,0,0,0,3.49.57c14.07-.41,24.83-4,37-11.42C426.33,216.93,427.68,215.82,427.33,214.41Z"></path></g><g style="opacity:0.2"><path d="M435.74,205.08a2.21,2.21,0,0,0-3.45-1.23l.06-.06a8.5,8.5,0,0,0-2.56,3.1,2.67,2.67,0,0,0,1,3.38c1.2.57,2.62-.22,3.55-1.18A4.42,4.42,0,0,0,435.74,205.08Z"></path></g><path d="M420.85,160.21a1.54,1.54,0,0,1-.35,0l-1-.16-.7-.12-.84-.09c-.61-.06-1.29-.16-2.06-.17l-1.19,0c-.42,0-.85,0-1.3,0-.9,0-1.85.11-2.86.2a32.41,32.41,0,0,0-12.37,4.12c-.86.52-1.69,1-2.41,1.54-.36.26-.73.5-1.06.76l-.93.75c-.61.47-1.09,1-1.54,1.37-.22.21-.44.39-.62.58l-.49.51-.69.71a1.69,1.69,0,0,1-.25.23s.06-.1.2-.28l.64-.75.47-.54.6-.6a19.81,19.81,0,0,1,1.52-1.41l.93-.78c.32-.27.69-.51,1.05-.78a28.2,28.2,0,0,1,2.42-1.59,34.28,34.28,0,0,1,6-2.74,33.79,33.79,0,0,1,6.46-1.41c1-.09,2-.19,2.89-.18.45,0,.89,0,1.31,0l1.21.07a18.36,18.36,0,0,1,2.06.22c.3,0,.59.07.85.12l.69.15,1,.22A1.89,1.89,0,0,1,420.85,160.21Z" style="fill:#fff"></path><path d="M430.37,165.37a26.16,26.16,0,0,1-5.08-3.13,24.93,24.93,0,0,1,5.08,3.13Z" style="fill:#fff"></path><g style="opacity:0.1"><path d="M421.44,163.12c-14.4-3.51-26.71,3.15-34.13,16-2.37,4.09-3.92,8.87-2.48,13.59a10,10,0,0,0,1.82,3.41c4.22,5.09,10.55,3.5,14.83.2,3.17-2.43,5.56-5.72,8.4-8.53s6.44-5.26,10.44-5.27,8.13,2.35,11.6-.58a7,7,0,0,0,2.28-5.8,11.62,11.62,0,0,0-1.41-4.78,16.44,16.44,0,0,0-9.7-7.71Z" style="fill:#fff"></path></g><path d="M125.32,353.11c-10.75.42-22.75-4.35-32.09-9.68s-16.82-14.44-18.7-25S77,296,86.2,290.35c9.81-6,23.27-4,32.27,3.23s13.09,21.17,12.45,32.67c-.72,13-.63,17.08-5.6,26.86" style="fill:#455a64"></path><path d="M129.88,352.76a10.66,10.66,0,0,1-5.08-2.66l-.33,1.45c-.45,1.54.25,4.65.78,6.17.15.43.45.93.91.92s.77-.59.79-1.08a3.52,3.52,0,0,1,.16-1.46,3.5,3.5,0,0,0,.94,1.21,1.06,1.06,0,0,0,1.58-1.41,3.4,3.4,0,0,0-1.11-1.09,3.55,3.55,0,0,0,1.88.37,1.23,1.23,0,0,0,1.08-1.35C131.33,353.17,130.53,352.93,129.88,352.76Z" style="fill:#455a64"></path><path d="M126.41,350.87c.16,0,.1.92-.68,1.62s-1.69.67-1.68.51.66-.38,1.28-.95S126.24,350.83,126.41,350.87Z" style="fill:#263238"></path><g style="opacity:0.2"><path d="M124.71,308.13a1.83,1.83,0,0,0-1.71,1.13c-.57,1.27-.11,2.57.29,3.8a40.47,40.47,0,0,1-2.39,30.33c-.68,1.35-1.42,3.06-.48,4.25a2.62,2.62,0,0,0,3.07.53,5.81,5.81,0,0,0,2.25-1.85,7.53,7.53,0,0,0,1.31-2.7c3.11-11.54,2.79-21.18-.24-32.89C126.51,309.57,125.94,308.19,124.71,308.13Z"></path></g><g style="opacity:0.2"><path d="M119.17,299a1.88,1.88,0,0,0-1.84,2.51l0-.06a7.13,7.13,0,0,0,1.89,2.83,2.26,2.26,0,0,0,3,0c.76-.83.47-2.18-.09-3.17A3.76,3.76,0,0,0,119.17,299Z"></path></g><path d="M79,300.16a1,1,0,0,1-.11.27l-.36.76c-.09.16-.18.35-.27.54s-.18.42-.28.66a16.86,16.86,0,0,0-.64,1.63q-.16.47-.33,1c-.12.34-.2.7-.3,1.07-.22.73-.36,1.53-.53,2.37a27.65,27.65,0,0,0,.32,11.07c.22.83.4,1.62.67,2.34.12.36.22.71.36,1l.38.94c.23.61.51,1.13.73,1.59.12.23.22.45.32.65l.3.52.41.73a1.13,1.13,0,0,1,.13.27s-.07-.08-.18-.23-.27-.43-.46-.71-.2-.33-.32-.51l-.34-.64a16.66,16.66,0,0,1-.78-1.58l-.41-.95c-.13-.33-.24-.68-.37-1a22,22,0,0,1-.7-2.36,28.48,28.48,0,0,1-.76-5.57,30.08,30.08,0,0,1,.43-5.61c.18-.84.33-1.65.56-2.39.11-.37.2-.73.32-1.07l.35-1c.21-.62.48-1.15.69-1.63.11-.23.2-.45.3-.65s.2-.37.29-.53l.42-.73A1.42,1.42,0,0,1,79,300.16Z" style="fill:#fff"></path><path d="M85.55,293.67a10.76,10.76,0,0,1-1.79,1.8,11.29,11.29,0,0,1-2,1.57,10.94,10.94,0,0,1,1.79-1.79A11.67,11.67,0,0,1,85.55,293.67Z" style="fill:#fff"></path><g style="opacity:0.1"><path d="M81.54,300.39c-6.37,10.86-4,22.5,4.66,31.67,2.75,2.93,6.26,5.36,10.45,5.34a8.46,8.46,0,0,0,3.22-.65c5.17-2.18,5.42-7.73,3.79-12-1.21-3.18-3.3-5.93-4.89-8.92S96.07,309.3,97,306s3.9-6,2.37-9.58a5.93,5.93,0,0,0-4.17-3.27,9.74,9.74,0,0,0-4.23,0,14,14,0,0,0-8.64,6Z" style="fill:#fff"></path></g></g><g id="freepik--speech-bubble--inject-226"><path d="M300.55,86.76l6.33-.9a24.41,24.41,0,1,0-6.42-5.94h0Z" style="fill:#fff"></path><path d="M300.55,86.76a2,2,0,0,1,0-.42c0-.32,0-.75,0-1.3,0-1.2-.08-2.91-.13-5.13,0-.06,0-.1.1-.11a.11.11,0,0,1,.07,0h0l-.15.14a24.28,24.28,0,0,1-4.67-10.82,25.44,25.44,0,0,1,0-7.8,24.49,24.49,0,0,1,3-8.35,24.81,24.81,0,0,1,6.5-7.32,23.85,23.85,0,0,1,9.61-4.44,25.14,25.14,0,0,1,11.27.21,24.14,24.14,0,0,1,10.39,5.61,25.41,25.41,0,0,1,4,4.58c.52.86,1.05,1.71,1.5,2.6l.62,1.35.3.68.24.7a25.16,25.16,0,0,1,1.26,11.31,24,24,0,0,1-3.63,10,25.07,25.07,0,0,1-6.82,7.14,24.57,24.57,0,0,1-8.14,3.66l-2,.39c-.67.12-1.34.14-2,.21a21.65,21.65,0,0,1-3.78,0,24.22,24.22,0,0,1-11.13-3.79l.07,0-4.74.62-1.21.15-.39,0,.43-.08,1.22-.2,4.66-.73.07,0a24.31,24.31,0,0,0,11,3.63,22.17,22.17,0,0,0,3.73,0c.64-.07,1.3-.1,2-.22l2-.39a24.28,24.28,0,0,0,14.65-10.68,23.51,23.51,0,0,0,3.53-9.86,24.58,24.58,0,0,0-1.25-11.08l-.23-.68-.3-.66-.6-1.33c-.44-.87-1-1.7-1.47-2.54a25.15,25.15,0,0,0-3.9-4.49A23.78,23.78,0,0,0,325.92,42a24.8,24.8,0,0,0-11-.23,23.76,23.76,0,0,0-9.44,4.33A24.65,24.65,0,0,0,299,53.23a24.22,24.22,0,0,0-3,8.19,24.82,24.82,0,0,0,0,7.69,24.39,24.39,0,0,0,4.51,10.75.11.11,0,0,1,0,.14.1.1,0,0,1-.13,0h0l.17-.08V86.3C300.56,86.6,300.55,86.76,300.55,86.76Z" style="fill:#263238"></path><polygon points="307 66.33 310.3 62.8 317.1 68.43 329.62 55.54 332.91 58.85 316.83 75.05 307 66.33" style="fill:#9A1750"></polygon></g><g id="freepik--Character--inject-226"><path d="M315.1,116.76s3.26,3.34,5.16,5.74,7.18,4.87,7.18,4.87l1.82,1.15v5.7l13,.57a74,74,0,0,1-1.74-10.89c-.66-6.85-4-13-4.95-13.21s-.49,0-.49,0-.67-2.14-1.9-2.14c0,0-.83-2.4-4.29-1.24,0,0-.5-.47-2-.32s-8.58,3.29-8.91,4,.83,3.22.83,3.22-2.32-1.81-3.22-1.24S313.88,114.57,315.1,116.76Z" style="fill:#ffbf9d"></path><path d="M334.26,115.56l-.26.2-.79.56-1.23.89c-.24.18-.5.37-.74.58l-.07.06s0,0,0,0a.18.18,0,0,0,0-.11s0,0,0,0a.68.68,0,0,0,.2.06l.52.07h0a1.41,1.41,0,0,1,1.09,1.68,2,2,0,0,1-1.84,1.3,5.34,5.34,0,0,1-2.4-.17,4.38,4.38,0,0,1-2.12-1.47,4,4,0,0,1-.85-2.75,3.22,3.22,0,0,1,1.38-2.3,5.83,5.83,0,0,1,1.07-.6l1-.49,1.82-.87,2.66-1.22a4.66,4.66,0,0,1,1-.39,4.46,4.46,0,0,1-.91.57l-2.58,1.37-1.8.93-1,.51a6.49,6.49,0,0,0-1,.57,2.76,2.76,0,0,0-1.15,2,3.52,3.52,0,0,0,.75,2.38,3.93,3.93,0,0,0,1.87,1.31,5.17,5.17,0,0,0,2.17.17,1.64,1.64,0,0,0,1.48-.93,1,1,0,0,0-.75-1.18h0a5,5,0,0,1-.56-.09,1.11,1.11,0,0,1-.3-.11.21.21,0,0,1-.11-.09.23.23,0,0,1,0-.17c0-.11,0-.08.06-.1l.11-.12c.28-.22.55-.39.8-.56.49-.33.93-.6,1.29-.81C333.81,115.71,334.25,115.48,334.26,115.56Z" style="fill:#ff9a6c"></path><path d="M332.25,108.83a19.73,19.73,0,0,1-2.52,1.11c-.79.33-1.71.73-2.73,1.2l-1.59.76a11,11,0,0,0-1.61.9,2.22,2.22,0,0,0-1,1.36,3.13,3.13,0,0,0,.18,1.6,8.42,8.42,0,0,0,1.33,2.55,2.74,2.74,0,0,0,1.73.7c.45,0,.7-.13.71-.09s-.2.23-.7.29a2.74,2.74,0,0,1-2-.63,4.76,4.76,0,0,1-.85-1.18,12.81,12.81,0,0,1-.68-1.48,3.46,3.46,0,0,1-.23-1.86,2.73,2.73,0,0,1,1.15-1.68,10.7,10.7,0,0,1,1.7-.94l1.61-.74c1-.45,2-.82,2.79-1.1A11.08,11.08,0,0,1,332.25,108.83Z" style="fill:#ff9a6c"></path><path d="M328.13,107.72a18.28,18.28,0,0,1-2.2.94c-.67.28-1.47.64-2.33,1.08a16.84,16.84,0,0,0-2.68,1.57,2.56,2.56,0,0,0-.84,2.62,5.53,5.53,0,0,0,1,2.22,2,2,0,0,0,1.43.66c.4,0,.6-.11.62-.07s-.16.22-.61.27a2.08,2.08,0,0,1-1.71-.61,5.55,5.55,0,0,1-1.24-2.37,3.46,3.46,0,0,1,0-1.63,2.73,2.73,0,0,1,1-1.49,15.1,15.1,0,0,1,2.81-1.6,23.89,23.89,0,0,1,2.41-1A8.21,8.21,0,0,1,328.13,107.72Z" style="fill:#ff9a6c"></path><path d="M323.4,117.68c0,.07-.31.24-.85.46a1.77,1.77,0,0,1-.53.16.83.83,0,0,1-.61-.38l-.8-1a10.41,10.41,0,0,1-1.79-2.72,10.2,10.2,0,0,1,2.2,2.4l.76,1c.12.17.2.24.25.25a3.1,3.1,0,0,0,.4-.08C323,117.66,323.38,117.61,323.4,117.68Z" style="fill:#ff9a6c"></path><path d="M331.46,124.6c-.15,0-.43-1.15-1.23-2.36s-1.77-1.94-1.68-2.07,1.25.45,2.11,1.78A3.68,3.68,0,0,1,331.46,124.6Z" style="fill:#ff9a6c"></path><path d="M328.08,129.47l-1,15.65L341.66,172s4.22-22.86,2.66-26.38-2.38-5.16-2.38-5.16l.32-8.84Z" style="fill:#e0e0e0"></path><path d="M212.61,431l.57,23.21s-23,8.4-23.35,12.7l44.37.46.57-36.21Z" style="fill:#263238"></path><path d="M226.92,452.37a1.83,1.83,0,0,1,1.23,2.11,1.74,1.74,0,0,1-2.05,1.26,2,2,0,0,1-1.29-2.25,1.81,1.81,0,0,1,2.28-1.07" style="fill:#e0e0e0"></path><path d="M234.2,467.34l-.08-3.66-42.51.93s-2,.86-1.78,2.27Z" style="fill:#455a64"></path><path d="M212.47,453.94c0,.22,1.08.33,2.14,1.05s1.62,1.65,1.82,1.56-.11-1.36-1.41-2.2S212.42,453.74,212.47,453.94Z" style="fill:#fff"></path><path d="M207.79,455.85c0,.21.88.59,1.61,1.53s.93,1.92,1.14,1.92.37-1.25-.55-2.4S207.8,455.64,207.79,455.85Z" style="fill:#fff"></path><path d="M205.09,461.47c.19,0,.51-1,0-2.25s-1.55-1.7-1.64-1.52.53.83,1,1.83S204.87,461.45,205.09,461.47Z" style="fill:#fff"></path><path d="M212.91,448.63c.09.21,1.09-.09,2.31,0s2.18.5,2.29.31-.79-1-2.24-1.07S212.81,448.46,212.91,448.63Z" style="fill:#fff"></path><path d="M263.28,430.53l-.11,28.09-6.39,22.21a2.86,2.86,0,0,0,2.11,3.61h0a2.79,2.79,0,0,0,2.51-.68c4.33-4,20.18-18.83,20.08-20.88-.13-2.38,2-29.63,2-29.63Z" style="fill:#263238"></path><path d="M258.89,484.44,281.53,461l0,1.19a4.34,4.34,0,0,1-1.08,2.79c-1.81,2.05-6.94,7.61-18.93,18.8a2.81,2.81,0,0,1-2.59.68Z" style="fill:#455a64"></path><g style="opacity:0.6000000000000001"><path d="M276.09,451.79a1.76,1.76,0,0,0-.53,2.26,1.63,1.63,0,0,0,2.2.54,1.85,1.85,0,0,0,.55-2.39,1.7,1.7,0,0,0-2.36-.31" style="fill:#fff"></path></g><path d="M265.53,472.33c-.16.07-.74-1.41-2.36-2.25a8.36,8.36,0,0,0-3.17-.69c0-.07.33-.28,1-.36a4.39,4.39,0,0,1,2.47.51,4.34,4.34,0,0,1,1.81,1.77C265.57,471.89,265.6,472.31,265.53,472.33Z" style="fill:#fff"></path><path d="M263.46,476c-.13.12-1-.82-2.41-1.27s-2.66-.24-2.7-.42a3.13,3.13,0,0,1,2.89-.16C262.85,474.71,263.61,476,263.46,476Z" style="fill:#fff"></path><path d="M269.33,467.6c-.14.13-1.46-1.32-3.6-2.21s-4.08-.89-4.08-1.08,2-.49,4.31.51A6.33,6.33,0,0,1,269.33,467.6Z" style="fill:#fff"></path><path d="M270.06,459.06c-.08.17-1.59-.52-3.57-.64s-3.58.32-3.63.15,1.54-.92,3.67-.77S270.15,458.93,270.06,459.06Z" style="fill:#fff"></path><path d="M270.3,450.82c-.09.16-1.6-.82-3.7-.77s-3.6,1-3.7.84.27-.4.92-.76a6.08,6.08,0,0,1,5.55-.06C270,450.42,270.34,450.75,270.3,450.82Z" style="fill:#fff"></path><path d="M266.69,448.48a2.32,2.32,0,0,1,0-1.06,7.51,7.51,0,0,1,.9-2.76,3.23,3.23,0,0,1,1.42-1.53,1.13,1.13,0,0,1,1.28.29,1.88,1.88,0,0,1,.41,1.27,4.06,4.06,0,0,1-3.61,3.68,4.62,4.62,0,0,1-4.5-2.58,1.61,1.61,0,0,1,0-1.36,1.11,1.11,0,0,1,1.18-.57,4,4,0,0,1,1.8,1,8.29,8.29,0,0,1,1.83,2.23,2.63,2.63,0,0,1,.4,1,13.46,13.46,0,0,0-2.5-2.87,3.69,3.69,0,0,0-1.59-.83.59.59,0,0,0-.65.3,1.17,1.17,0,0,0,.08.9,4.14,4.14,0,0,0,3.93,2.19,3.53,3.53,0,0,0,3.11-3.08,1.37,1.37,0,0,0-.25-.9.6.6,0,0,0-.7-.17,2.85,2.85,0,0,0-1.23,1.27A10.87,10.87,0,0,0,266.69,448.48Z" style="fill:#fff"></path><path d="M207.86,237.9a190.09,190.09,0,0,0-3,30.37c-.09,6.25,5.86,182.28,5.86,182.28l26,.63,6-164,2.24.7s9,70.23,9.28,81.49c.22,10.12,6.61,82.93,6.61,82.93h25.39l.46-93.3-3.06-92.73-1.56-26Z" style="fill:#455a64"></path><path d="M265.86,108.55A80.35,80.35,0,0,0,270,95.31a28.26,28.26,0,0,0-.42-13.74c-.21-.67-2.08-5.18-2.78-5.14-.5,0,.58,4.2.31,4.62a23.72,23.72,0,0,0-3.37,13.73,63,63,0,0,0,2.1,13.77" style="fill:#263238"></path><path d="M264.69,133.55l2.5-42.62c.95-11.58-5-21.78-16.58-22.41h-1.08a20.76,20.76,0,0,0-20.62,19.16c-.77,10-1.49,21.13-1.4,26.51.18,11.15,11.33,12.83,11.33,12.83s-.39,11.33-.52,14.6l16.8-.31,4-.22Z" style="fill:#ffbf9d"></path><path d="M238.84,127a26.89,26.89,0,0,0,14.49-4.34s-3.46,8.39-14.58,7.43Z" style="fill:#ff9a6c"></path><path d="M234.08,98a1.58,1.58,0,0,0,1.54,1.6,1.51,1.51,0,0,0,1.63-1.44,1.58,1.58,0,0,0-1.53-1.6A1.53,1.53,0,0,0,234.08,98Z" style="fill:#263238"></path><path d="M231.3,92.6c.2.21,1.4-.69,3.11-.69s3,.85,3.16.64-.11-.47-.66-.86a4.32,4.32,0,0,0-2.53-.77,4.14,4.14,0,0,0-2.47.81C231.38,92.13,231.2,92.51,231.3,92.6Z" style="fill:#263238"></path><path d="M249.19,98.32a1.59,1.59,0,0,0,1.54,1.6,1.52,1.52,0,0,0,1.63-1.44,1.58,1.58,0,0,0-1.54-1.6A1.51,1.51,0,0,0,249.19,98.32Z" style="fill:#263238"></path><path d="M248.09,92.93c.19.21,1.4-.69,3.11-.69s3,.85,3.15.64-.11-.47-.66-.86a4.31,4.31,0,0,0-2.52-.77,4.21,4.21,0,0,0-2.48.81C248.17,92.47,248,92.84,248.09,92.93Z" style="fill:#263238"></path><path d="M242,106.11a12.41,12.41,0,0,0-2.79-.49c-.43,0-.85-.13-.92-.42a2.17,2.17,0,0,1,.28-1.3c.41-1.06.84-2.17,1.28-3.34,1.78-4.74,3.07-8.64,2.87-8.71s-1.78,3.72-3.56,8.46l-1.23,3.36a2.56,2.56,0,0,0-.22,1.71,1.08,1.08,0,0,0,.72.64,3.1,3.1,0,0,0,.75.1A10.75,10.75,0,0,0,242,106.11Z" style="fill:#263238"></path><path d="M247.51,87.58c.24.44,1.9,0,3.92-.08s3.71.25,3.91-.2c.09-.21-.25-.6-1-1a6.79,6.79,0,0,0-6,.22C247.72,87,247.41,87.37,247.51,87.58Z" style="fill:#263238"></path><path d="M230.82,88c.36.39,1.75,0,3.43,0s3.09.3,3.43-.1c.14-.2-.08-.59-.69-1a5.42,5.42,0,0,0-2.78-.66,5.2,5.2,0,0,0-2.74.75C230.87,87.38,230.67,87.78,230.82,88Z" style="fill:#263238"></path><path d="M266.31,99.18c.19-.08,7.65-2.29,7.43,5.32s-7.81,5.83-7.82,5.62S266.31,99.18,266.31,99.18Z" style="fill:#ffbf9d"></path><path d="M268.33,107.3s.13.09.35.2a1.3,1.3,0,0,0,1,0,3.27,3.27,0,0,0,1.6-2.9,4.2,4.2,0,0,0-.32-1.91,1.5,1.5,0,0,0-1-1,.67.67,0,0,0-.8.34c-.11.21-.06.36-.1.38s-.16-.14-.09-.45a.83.83,0,0,1,.31-.47,1,1,0,0,1,.74-.17,1.85,1.85,0,0,1,1.35,1.22,4.37,4.37,0,0,1,.4,2.13c-.09,1.54-.91,3-2,3.24a1.39,1.39,0,0,1-1.21-.24C268.34,107.48,268.3,107.31,268.33,107.3Z" style="fill:#ff9a6c"></path><path d="M234.31,75.26c-1.21-.73,2.63-4.58,5.71-5.85,4.66-1.9,11.7-2.93,15.87-1.57,5,1.63,9.16,4.31,11.54,9a30,30,0,0,1,2.8,15.42A9.05,9.05,0,0,1,269,96.9c-1.12,1.64-2.67,2.42-3.2,5a4.23,4.23,0,0,1-.87,2.29c-1.45,1.43-3.11,0-3.84-1.45-1.56-3-1.62-6.61-1.64-10a22.46,22.46,0,0,1,.75-7.23c.42-1.25,1.06-2.43,1.41-3.71a4.55,4.55,0,0,0-.4-3.82,4.48,4.48,0,0,0-.59-.65,8,8,0,0,0-7.83-1.79c-4.34,1.36-11.75,3.35-13.61,1.83a11.82,11.82,0,0,1-3.28-3.59Z" style="fill:#263238"></path><path d="M240.64,109.78l.29-.2,4.46-.35a1.32,1.32,0,0,1,.71.07,1.13,1.13,0,0,1,.49.69,3.17,3.17,0,1,1-6-.21Z" style="fill:#ff9a6c"></path><path d="M241.12,113.11a.71.71,0,0,0,.1.12,1.94,1.94,0,0,0,.32.3,3.21,3.21,0,0,0,1.47.64,3.31,3.31,0,0,0,2.34-.45,3.54,3.54,0,0,0,1.52-2.48,3.09,3.09,0,0,0-.2-1.54,1,1,0,0,0-.58-.52,1.82,1.82,0,0,0-.73,0l-2.34.28-1.59.21a3.5,3.5,0,0,0-.57.1,2.58,2.58,0,0,0,.58,0l1.59-.14,2.36-.22a1.66,1.66,0,0,1,.63,0,.75.75,0,0,1,.44.42,2.81,2.81,0,0,1,.17,1.4,3.3,3.3,0,0,1-1.4,2.32A3.19,3.19,0,0,1,243,114a3.65,3.65,0,0,1-1.45-.55C241.28,113.25,241.14,113.09,241.12,113.11Z" style="fill:#263238"></path><path d="M213,59.38c.28.11,21.84,6,21.84,6l33.38,6.52,22.58,1.78.18-1.35L248.53,61.59l-35.38-3.17Z" style="fill:#263238"></path><path d="M231.37,78.75l4.52-13.38s13.38-4.21,33.92,6.64a49.35,49.35,0,0,1,2.46,17.26,45.22,45.22,0,0,0-29.33-10.06s-7.11-3.48-11.57-.46Z" style="fill:#455a64"></path><path d="M272.15,84.35s-8.56-5.53-15.87-7.57a33.66,33.66,0,0,0-12.83-1.22,14.66,14.66,0,0,0-11-.71h0l-1.06,3.9c4.46-3,11.57.46,11.57.46a44.71,44.71,0,0,1,29.27,10.17A21.84,21.84,0,0,0,272.15,84.35Z" style="fill:#9A1750"></path><path d="M242.94,79.21a59.91,59.91,0,0,1,.87-7.77,57.6,57.6,0,0,1,1.38-7.7,59.91,59.91,0,0,1-.87,7.77A57.6,57.6,0,0,1,242.94,79.21Z" style="fill:#263238"></path><polygon points="290.83 73.67 248.17 63 213.03 59.38 213.16 58.42 248.73 61.51 291.01 72.32 290.83 73.67" style="fill:#455a64"></polygon><path d="M248.19,63.14c-.14,0-.21-.4-.15-.86s.23-.81.37-.79.21.41.15.86S248.33,63.16,248.19,63.14Z" style="fill:#263238"></path><path d="M216.27,68.51l-1.21-.11a3.2,3.2,0,0,0-2.13,2.53,81.88,81.88,0,0,0-2.39,11.48l3.74.5c.3,0,.88-9.62.89,0,0,.33,2.14.4,2.08,0A54.06,54.06,0,0,1,217,70.51,2.1,2.1,0,0,0,216.27,68.51Z" style="fill:#9A1750"></path><path d="M216.52,66.8a26.76,26.76,0,0,1,.65-3.42,9.49,9.49,0,0,1,1-2.72,3.06,3.06,0,0,1,2.08-1.49,4.93,4.93,0,0,1,3.16,1c.68.42,1.31-.66.63-1.08a6.2,6.2,0,0,0-3.82-1.18,4.18,4.18,0,0,0-2.85,1.72,8.82,8.82,0,0,0-1.33,3.08,30,30,0,0,0-.78,4.08.63.63,0,0,0,.62.63.65.65,0,0,0,.63-.63Z" style="fill:#9A1750"></path><path d="M217.35,67.65a1.77,1.77,0,1,1-1.53-1.92A1.74,1.74,0,0,1,217.35,67.65Z" style="fill:#9A1750"></path><path d="M217.35,67.65a2.34,2.34,0,0,0-.65-1.31,1.65,1.65,0,0,0-1.43-.35,1.44,1.44,0,0,0-.37,2.72,1.64,1.64,0,0,0,1.48,0c.82-.41.88-1.13,1-1.09s.06.16,0,.45a1.75,1.75,0,0,1-.78,1,2,2,0,0,1-1.86.07,1.9,1.9,0,0,1,.48-3.62,2,2,0,0,1,1.78.55,1.72,1.72,0,0,1,.5,1.14C217.45,67.5,217.38,67.65,217.35,67.65Z" style="fill:#263238"></path><path d="M212.18,79.79c-.17,0-.06-2.58.71-5.64a26.27,26.27,0,0,1,1.22-3.84c.38-1,.87-1.48.93-1.4s-.29.54-.59,1.53-.68,2.32-1.06,3.83C212.63,77.3,212.3,79.79,212.18,79.79Z" style="fill:#263238"></path><path d="M214.27,77.32a13,13,0,0,1,.14-4.22,12.89,12.89,0,0,1,1-4.1,25.94,25.94,0,0,1-.48,4.17A26.72,26.72,0,0,1,214.27,77.32Z" style="fill:#263238"></path><path d="M216,71.42c-.15,0-.24-.52-.21-1.15s.17-1.14.32-1.14.23.53.2,1.16S216.09,71.43,216,71.42Z" style="fill:#263238"></path><polygon points="221.99 59.23 224.8 59.46 224.74 60.4 221.71 59.95 221.99 59.23" style="fill:#455a64"></polygon><path d="M246.61,78.26c.48-2.4-.52-6-3.89-7.06a5.23,5.23,0,0,0-6.14,2.7,1.78,1.78,0,0,0-2.06-.77,3,3,0,0,0-1.73,1.54,3.18,3.18,0,0,0-.27,2.79,1.89,1.89,0,0,0,2.4,1,4.24,4.24,0,0,0,6.88,2.63,5.3,5.3,0,0,0,9-1.94Z" style="fill:#263238"></path><path d="M205.23,141.77s-5,.78-6.94,3-5.68,5.83-7.57,12.3-7.88,25.07-7.88,25.07l-9.93,3.47L168,198.29A78.11,78.11,0,0,0,163,232.68a37.89,37.89,0,0,0,1.59,8.89c3.31,9.62,16.47,11.05,19.15,10.1S207.12,219,207.12,219l3.94-46Z" style="fill:#263238"></path><g style="opacity:0.30000000000000004"><path d="M189.87,195l-14.73-5.62c-1.89,7.66-7.18,17.33-8.2,25.15a70.66,70.66,0,0,0,.45,23.53c.71,3.41,1.84,6.9,4.33,9.33a5.13,5.13,0,0,0,3.48,1.68c2.17,0,3.7-2.09,4.79-4C188.45,230.56,191.68,211.26,189.87,195Z"></path></g><path d="M188.84,221.66s2.77-14.06,1.29-24.62c-.81-5.78-5.31-10.8-5.31-10.8s-9.66.33-9.68,3.18a56.78,56.78,0,0,0,1.63,6.22c.08,1.45-.81,3.49-.73,5.56,0,0,6,16.91,12.8,20.46" style="fill:#e0e0e0"></path><path d="M178.63,248a3.6,3.6,0,0,1,.26-.55l.81-1.53c.73-1.3,1.69-3.25,2.81-5.68a88.21,88.21,0,0,0,6.29-19.87,81.72,81.72,0,0,0,1.36-20.79c0-.67-.09-1.31-.13-1.91s-.13-1.16-.19-1.69c-.12-1.06-.22-2-.36-2.7s-.19-1.26-.26-1.71a2.46,2.46,0,0,1-.05-.6,3.87,3.87,0,0,1,.16.58c.09.44.21,1,.35,1.69s.3,1.65.45,2.7c.07.54.15,1.1.23,1.7s.11,1.24.17,1.91a77.43,77.43,0,0,1-1.21,20.92,83.62,83.62,0,0,1-6.47,19.93c-1.17,2.42-2.18,4.34-3,5.62l-.89,1.48A2.12,2.12,0,0,1,178.63,248Z" style="fill:#455a64"></path><path d="M203.37,201.66A28.87,28.87,0,0,1,201,199a62.53,62.53,0,0,0-5.77-6.17,25.73,25.73,0,0,0-7-4.64c-2-.84-3.31-1.09-3.29-1.2a4,4,0,0,1,.94.13,14.65,14.65,0,0,1,2.49.73,23.36,23.36,0,0,1,7.18,4.59,48.14,48.14,0,0,1,5.71,6.33c.67.86,1.18,1.57,1.54,2.06A3.29,3.29,0,0,1,203.37,201.66Z" style="fill:#455a64"></path><path d="M197.46,216c-.08,0,.13-1.35.28-3.52a47.07,47.07,0,0,0-1.78-16.8c-.61-2.09-1.09-3.35-1-3.38a3.1,3.1,0,0,1,.44.84c.25.56.57,1.39.92,2.43a39.71,39.71,0,0,1,1.8,16.94c-.13,1.09-.27,2-.4,2.57A2.84,2.84,0,0,1,197.46,216Z" style="fill:#455a64"></path><path d="M292.07,143.82s2.46-1.88,4.33-.78,20.8,17.85,20.8,17.85l9.35-26.1s27.45,62.94,22.7,67-37.49,6.09-46.83,1.34-21.29-25.25-21.29-25.25Z" style="fill:#263238"></path><polygon points="230.02 135.84 235.7 133.75 238.75 128.48 249.72 136.19 265.13 126.06 266.28 132.91 273.66 137.6 250.48 173.93 239.16 170.36 230.02 135.84" style="fill:#e0e0e0"></polygon><polygon points="248.53 137.82 245.84 141.19 247.19 144.72 250.44 145.26 252.48 141.86 250.6 138.06 248.53 137.82" style="fill:#9A1750"></polygon><polygon points="247.19 144.72 239.16 170.36 250.48 173.93 254.12 168.23 250.44 145.26 247.19 144.72" style="fill:#9A1750"></polygon><path d="M266,133.24a5.93,5.93,0,0,1-.93.81l-2.66,2.12-9.26,7.14-.25.19-.13-.28-2.47-5.16c-.29-.59-.57-1.18-.85-1.76l.44,0-5.19,6.38-.16.21-.18-.19-6-6.13-1.67-1.76a3.28,3.28,0,0,1-.55-.66,4.44,4.44,0,0,1,.65.56c.47.43,1.05,1,1.76,1.66l6.14,6h-.35l5.15-6.41.25-.33.18.38c.28.58.56,1.17.85,1.76l2.45,5.16-.38-.09,9.37-7,2.76-2A7.32,7.32,0,0,1,266,133.24Z" style="fill:#263238"></path><path d="M204.52,141.9l26.93-7.7,16,37.77,24.41-37.77,23.12,8.91-8.56,40.12,3.9,51s13.24,132,12.63,135.92l-23.71,2.61s1.65,23.57,0,24c-22.64,5.8-28.4-7.8-28.4-7.8-15.19,5.67-36.8.29-45.93-13.53l-15-6.59,13.54-172.8Z" style="fill:#263238"></path><path d="M198.29,144.76a2.87,2.87,0,0,1,.14.47c.09.35.2.8.35,1.37.29,1.25.7,3,1.22,5.19,1,4.51,2.46,10.83,4.15,18.27v.05c.27,5.53.31,11.75.13,18.3-.36,12.23-1.24,23.27-1.62,31.26-.21,4-.34,7.24-.43,9.48,0,1.08-.07,1.94-.1,2.58l0,.67c0,.15,0,.22,0,.22s0-.07,0-.23v-3.25c0-2.24.1-5.48.26-9.48.29-8,1.11-19,1.47-31.27.18-6.53.16-12.74-.09-18.26v0l-4-18.32c-.46-2.2-.83-4-1.09-5.22l-.27-1.39A2.44,2.44,0,0,1,198.29,144.76Z" style="fill:#455a64"></path><path d="M294.72,144.78a9.08,9.08,0,0,1-.35,1.62c-.29,1.12-.67,2.59-1.12,4.36-.94,3.69-2.2,8.79-3.43,14.46s-2.2,10.84-2.87,14.59l-.79,4.43a9.11,9.11,0,0,1-.35,1.62,11.07,11.07,0,0,1,.15-1.65c.12-1.06.34-2.58.62-4.46.58-3.77,1.5-8.95,2.73-14.64s2.55-10.78,3.58-14.44c.52-1.83,1-3.31,1.28-4.33A12.48,12.48,0,0,1,294.72,144.78Z" style="fill:#455a64"></path><path d="M319.42,197.2s-.1-.08-.26-.28a6.87,6.87,0,0,1-.6-.9,11.69,11.69,0,0,1-1.27-3.79,40.41,40.41,0,0,1-.42-5.9c-.06-2.22-.09-4.65-.1-7.21,0-5.12.1-9.76.25-13.11.07-1.67.14-3,.21-4a7.3,7.3,0,0,1,.16-1.45,8.24,8.24,0,0,1,0,1.45c0,1,0,2.37,0,4-.05,3.35-.11,8-.1,13.1,0,2.55,0,5,.06,7.2a43.91,43.91,0,0,0,.3,5.85A13,13,0,0,0,319.42,197.2Z" style="fill:#455a64"></path><path d="M311.88,195.3a7.51,7.51,0,0,1,0-1.39c0-.89,0-2.18.12-3.77a117.84,117.84,0,0,1,1.39-12.39A115.54,115.54,0,0,1,316,165.58c.43-1.54.81-2.78,1.1-3.62a6.31,6.31,0,0,1,.49-1.3,7.07,7.07,0,0,1-.3,1.36c-.24,1-.56,2.18-.93,3.65-.78,3.09-1.74,7.38-2.54,12.16s-1.26,9.16-1.53,12.33c-.12,1.51-.21,2.77-.29,3.76A6.84,6.84,0,0,1,311.88,195.3Z" style="fill:#455a64"></path><path d="M286.81,172.8c0,.15-18.62-.2-41.57-.76s-41.57-1.15-41.57-1.29,18.62.2,41.58.76S286.81,172.66,286.81,172.8Z" style="fill:#455a64"></path><path d="M223.61,285.93a.85.85,0,0,1,0-.29c0-.23,0-.51-.07-.87-.06-.77-.12-1.9-.14-3.36-.09-2.91-.12-7.12-.12-12.33,0-10.41.14-24.8.4-40.68s.58-30.27.88-40.68c.15-5.21.3-9.42.43-12.33.06-1.45.13-2.58.18-3.35,0-.35.05-.64.07-.87a1.36,1.36,0,0,1,0-.29c-.05,2.84-.49,26.13-1.08,57.53-.26,15.88-.46,30.26-.55,40.67-.05,5.21-.07,9.42-.05,12.33,0,1.46,0,2.59,0,3.35,0,.36,0,.65,0,.87S223.61,285.93,223.61,285.93Z" style="fill:#455a64"></path><path d="M233.43,204.15a6.48,6.48,0,0,1-.07-1.27c0-.92-.07-2.08-.13-3.46-.14-3-.32-7-.53-11.42s-.37-8.39-.51-11.42c0-1.38-.08-2.54-.11-3.46a6.17,6.17,0,0,1,0-1.28,6.12,6.12,0,0,1,.17,1.27c.08.81.18,2,.28,3.45.21,2.92.45,7,.66,11.42s.35,8.5.38,11.43c0,1.46,0,2.65,0,3.47A6,6,0,0,1,233.43,204.15Z" style="fill:#455a64"></path><path d="M250.78,387.38c-.05-2.86-.79-48.54-1.74-107.92-.43-29.8-.82-56.78-1.1-76.33-.09-9.75-.15-17.64-.2-23.13,0-2.73,0-4.85,0-6.29,0-.7,0-1.24,0-1.63s0-.56,0-.56c0,2.86.78,48.53,1.74,107.93.42,29.79.81,56.77,1.09,76.32.09,9.75.16,17.65.2,23.13,0,2.73,0,4.85,0,6.29,0,.7,0,1.25,0,1.64S250.78,387.38,250.78,387.38Z" style="fill:#455a64"></path><path d="M252.65,187a12.48,12.48,0,0,1-.38-2.2c-.24-1.57-.51-3.37-.81-5.34s-.54-4-.65-5.38a8.5,8.5,0,0,1,0-2.25,12.32,12.32,0,0,1,.39,2.21c.23,1.57.5,3.36.8,5.34s.54,4,.65,5.37A7.51,7.51,0,0,1,252.65,187Z" style="fill:#455a64"></path><path d="M279.19,372.8c-.14,0-3.13-45-6.67-100.46s-6.3-100.49-6.15-100.5,3.13,45,6.67,100.47S279.33,372.79,279.19,372.8Z" style="fill:#455a64"></path><path d="M213,228.41a3.55,3.55,0,0,1,0,.38q0,.41,0,1.11c0,1-.1,2.44-.17,4.27-.18,3.74-.43,9.11-.74,15.72-.67,13.3-1.59,31.61-2.62,51.85s-2.06,38.55-2.77,51.85c-.38,6.61-.69,12-.9,15.71-.12,1.83-.21,3.26-.27,4.27,0,.47-.06.84-.08,1.11a2.91,2.91,0,0,1-.05.38,2.21,2.21,0,0,1,0-.38q0-.4,0-1.11c0-1,.1-2.44.18-4.27.17-3.74.42-9.1.73-15.72.67-13.29,1.6-31.62,2.62-51.86s2.06-38.55,2.77-51.84c.38-6.62.69-12,.9-15.72.12-1.83.21-3.26.28-4.27,0-.46.06-.83.08-1.11A1.49,1.49,0,0,1,213,228.41Z" style="fill:#455a64"></path><path d="M223.32,300.4a12.7,12.7,0,0,1-.11-3.57,12.39,12.39,0,0,1,.4-3.56,12.55,12.55,0,0,1,.12,3.58A12,12,0,0,1,223.32,300.4Z" style="fill:#455a64"></path><g style="opacity:0.30000000000000004"><path d="M270.86,242l8.32,128.23C282.85,329.72,277.53,281.8,270.86,242Z"></path></g><g style="opacity:0.30000000000000004"><path d="M202.05,224.8a219.21,219.21,0,0,1,1.4-50.87A312.19,312.19,0,0,1,202,223.51"></path></g><g style="opacity:0.30000000000000004"><path d="M316.82,161.74c-2.75,6-5.51,12-7,18.4s-1.62,13.29.83,19.39a152.92,152.92,0,0,1,6.26-37.2l.17,2.62"></path></g><path d="M183.89,169.07c-.23-2.84-.26-5.75-1.21-8.44a4.63,4.63,0,0,0-1.05-1.84,2,2,0,0,0-2-.54,2.09,2.09,0,0,0-1.22,1.37,6.34,6.34,0,0,0-.2,1.89,15.69,15.69,0,0,1-.59,5.38c-.69,2-2.16,3.6-3,5.51a10,10,0,0,0,.64,9.26c.91,1.44,2.49,2.73,4.17,2.41l6.6-3.39A57.26,57.26,0,0,1,183.89,169.07Z" style="fill:#ff9a6c"></path><path d="M177.22,183.06l-27-67.5s2.66-4.89,10.08-4.41L186.86,179Z" style="fill:#e0e0e0"></path><path d="M184.75,179.89a3.25,3.25,0,0,1-.35-.67l-.91-1.94c-.77-1.7-1.87-4.16-3.19-7.23-2.64-6.12-6.16-14.64-9.91-24.1s-7-18.08-9.31-24.34c-1.16-3.12-2.07-5.66-2.68-7.42-.29-.85-.52-1.52-.69-2a3.09,3.09,0,0,1-.21-.72,5.23,5.23,0,0,1,.3.69l.79,2,2.83,7.37c2.39,6.22,5.72,14.81,9.46,24.27s7.21,18,9.76,24.15l3,7.29.82,2A3.68,3.68,0,0,1,184.75,179.89Z" style="fill:#263238"></path><path d="M166.46,167.41c-.08.18.8,7,1.11,8.91s1,1.9,1,1.9,0,2.46.62,3.38a4.6,4.6,0,0,0,1.35,1.35,12.15,12.15,0,0,0,1.41,2.77c.65.71,5.4,5.77,5.4,5.77s2.95,1.23,5-.37A7.84,7.84,0,0,0,185,187l-1.29-5.16s1.91-.86,1.91-1.72a4.91,4.91,0,0,0-.86-2.09,35.49,35.49,0,0,0-3.58,1c-1.34.49-4.59,1.78-4.59,1.78l-.56-1.37,5.41-3.24s2.88-.3,3.62-1,.25-2.7-.55-2.89-4.36.31-4.91.25-5.33,2-5.33,2,6.25-3.26,6.43-3.32,3.26-.12,3.69-.68.67-2.76-.68-3.13a17.15,17.15,0,0,0-4.73,0c-.55.06-7.61,2.64-7.61,2.64V168l4.36-5.59a2,2,0,0,0-.49-2.7c-.34-.29-1.45-.23-2.4.68C172.08,161.09,166.71,166.86,166.46,167.41Z" style="fill:#ffbf9d"></path><path d="M177.44,184.18a21.08,21.08,0,0,1,6.16-2.24,20.34,20.34,0,0,1-6.16,2.24Z" style="fill:#ff9a6c"></path><path d="M178.88,185.37c-.13-.08,0-.51.17-1s.31-.93.45-.93.23.51.05,1.09S179,185.45,178.88,185.37Z" style="fill:#ff9a6c"></path><path d="M169.74,171.59c-.11-.08.1-.56.55-1s.93-.65,1-.53-.23.49-.65.9S169.86,171.68,169.74,171.59Z" style="fill:#ff9a6c"></path><path d="M163.33,148.36s2.47-5.08,9.86-4.24l2,5s-4.26-1.37-9.75,4.42Z" style="fill:#9A1750"></path><path d="M157.66,151.29a10.07,10.07,0,0,0-4.7,5.84,3,3,0,0,0,.85,2.8,2.63,2.63,0,0,0,2.62,0,13,13,0,0,0,5.1-4.22,39.07,39.07,0,0,0,3.38-5.77A9.7,9.7,0,0,0,157.66,151.29Zm1.59,5a8.85,8.85,0,0,1-3.42,2.56,1.32,1.32,0,0,1-1.24-.1,1,1,0,0,1-.34-.87,4.42,4.42,0,0,1,1-2.43c.61-.67,1.3-1.51,2-2.11a7.44,7.44,0,0,1,2.55-1.73,10.92,10.92,0,0,1,3.34-.84C161.6,152.56,160.76,154.45,159.25,156.26Z" style="fill:#9A1750"></path><path d="M163.62,143.47a10.06,10.06,0,0,0-5.93-4.58,3,3,0,0,0-2.78.91,2.59,2.59,0,0,0,0,2.61,12.84,12.84,0,0,0,4.32,5,39.63,39.63,0,0,0,5.84,3.26A9.76,9.76,0,0,0,163.62,143.47Zm-4.94,1.69a8.86,8.86,0,0,1-2.62-3.37,1.29,1.29,0,0,1,.07-1.24,1,1,0,0,1,.86-.36,4.35,4.35,0,0,1,2.45,1c.68.59,1.54,1.26,2.16,1.91a7.84,7.84,0,0,1,1.78,2.51,11,11,0,0,1,.9,3.33C162.43,147.43,160.53,146.63,158.68,145.16Z" style="fill:#9A1750"></path></g></svg>
